<svg width="188" height="167" viewBox="0 0 188 167" fill="none" xmlns="http://www.w3.org/2000/svg">
<g clip-path="url(#clip0_917_3483)">
<path d="M2.09281 137.455C3.7938 147.891 11.4577 155.972 19.6168 163.034C20.7561 164.02 21.898 164.987 23.0426 165.934C23.0506 165.939 23.0583 165.948 23.0664 165.953C23.1215 165.998 23.1767 166.044 23.2276 166.089C23.4639 166.284 23.7003 166.479 23.9347 166.673L23.7876 166.718L23.3296 166.859C23.4868 166.816 23.6419 166.775 23.7991 166.731C23.846 166.718 23.8947 166.707 23.9415 166.694C29.3511 165.237 34.8708 163.638 39.2931 160.224C43.8811 156.679 47.0409 150.635 45.4585 145.067C45.2502 144.337 44.961 143.633 44.5961 142.967C44.4469 142.689 44.2825 142.419 44.1096 142.154C43.064 140.516 41.5998 139.186 39.8676 138.299C38.1354 137.413 36.1977 137.002 34.2537 137.11C32.3097 137.218 30.4295 137.84 28.8066 138.913C27.1837 139.985 25.8766 141.469 25.0197 143.213C25.0969 137.077 30.7177 132.602 35.9897 129.436C41.2637 126.271 47.235 122.852 48.8931 116.94C49.8176 113.65 49.0399 110.262 47.2247 107.4C47.1683 107.313 47.112 107.226 47.0534 107.141C44.8271 103.793 41.4164 101.406 37.5023 100.457C30.1989 98.8048 22.545 101.848 16.5546 106.331C6.91344 113.545 0.159344 125.59 2.09281 137.455Z" fill="#F2F2F2"/>
<path d="M17.5837 125.927C15.8991 127.959 14.5207 130.225 13.4919 132.653C12.6074 134.828 12.0539 137.123 11.8498 139.461C11.4061 144.263 12.3199 149.118 14.1422 153.563C15.5597 156.937 17.3994 160.119 19.6173 163.033C20.7565 164.02 21.8984 164.987 23.0431 165.934C23.051 165.939 23.0588 165.948 23.0668 165.953C23.1219 165.998 23.1771 166.044 23.2281 166.089C23.4644 166.284 23.7007 166.479 23.9351 166.672L23.7881 166.718L23.33 166.859C23.4872 166.815 23.6423 166.774 23.7996 166.731C23.8464 166.718 23.8951 166.707 23.9419 166.694C23.9348 162.858 24.8499 159.076 26.6105 155.666C28.3711 152.255 30.9258 149.315 34.0606 147.092C37.1976 144.908 40.8077 143.495 44.5966 142.967C44.4474 142.689 44.2829 142.419 44.11 142.154C42.6439 142.38 41.2008 142.736 39.7976 143.216C34.783 144.918 30.4514 148.185 27.4439 152.533C24.7391 156.485 23.2211 161.123 23.0681 165.905C22.8791 165.688 22.6904 165.467 22.5079 165.248C19.0262 161.134 16.0477 156.533 14.2725 151.423C12.7204 147.089 12.2608 142.441 12.9343 137.889C13.7266 132.932 16.2722 128.557 19.6373 124.886C23.2415 120.958 27.569 117.619 32.098 114.82C36.7374 111.947 41.712 109.651 46.9109 107.983C47.0283 107.944 47.1263 107.862 47.1848 107.754C47.2433 107.645 47.2577 107.519 47.2251 107.4C47.2045 107.294 47.1429 107.201 47.0538 107.14C47.0074 107.114 46.9556 107.097 46.9021 107.093C46.8486 107.089 46.7949 107.097 46.7449 107.117C46.103 107.323 45.4648 107.534 44.83 107.757C39.5426 109.619 34.5077 112.129 29.841 115.229C25.3342 118.215 21.0072 121.724 17.5837 125.927Z" fill="white"/>
<path d="M0.746773 167H115.097C115.18 167 115.259 166.967 115.317 166.909C115.375 166.851 115.408 166.772 115.408 166.69C115.408 166.608 115.375 166.529 115.317 166.471C115.259 166.413 115.18 166.38 115.097 166.38H0.746773C0.66436 166.38 0.585327 166.413 0.527054 166.471C0.468781 166.529 0.436035 166.608 0.436035 166.69C0.436035 166.772 0.468781 166.851 0.527054 166.909C0.585327 166.967 0.66436 167 0.746773 167Z" fill="#3F3D56"/>
<path d="M110.437 51.5319H111.258V29.0259C111.258 27.3153 111.595 25.6215 112.249 24.0411C112.904 22.4607 113.863 21.0248 115.072 19.8152C116.282 18.6056 117.717 17.6462 119.297 16.9915C120.877 16.3369 122.571 16 124.281 16H171.954C173.664 16 175.358 16.3369 176.938 16.9915C178.518 17.6461 179.954 18.6056 181.163 19.8152C182.372 21.0247 183.332 22.4607 183.986 24.0411C184.641 25.6214 184.978 27.3153 184.978 29.0258V152.496C184.978 154.206 184.641 155.9 183.986 157.48C183.332 159.061 182.372 160.497 181.163 161.706C179.954 162.916 178.518 163.875 176.938 164.53C175.358 165.185 173.664 165.522 171.954 165.522H124.281C120.827 165.522 117.515 164.149 115.072 161.706C112.63 159.264 111.258 155.95 111.258 152.496V67.5521H110.437V51.5319Z" fill="#3F3D56"/>
<path d="M123.756 19.3887H129.979C129.693 20.0904 129.583 20.8518 129.661 21.6057C129.738 22.3596 130 23.0829 130.422 23.712C130.845 24.341 131.416 24.8564 132.084 25.2128C132.753 25.5692 133.499 25.7556 134.257 25.7557H161.568C162.326 25.7556 163.072 25.5692 163.741 25.2128C164.409 24.8564 164.98 24.341 165.403 23.712C165.826 23.0829 166.087 22.3596 166.164 21.6057C166.242 20.8518 166.132 20.0904 165.846 19.3887H171.658C174.238 19.3887 176.712 20.4135 178.536 22.2378C180.359 24.0621 181.384 26.5363 181.384 29.1162V152.405C181.384 153.682 181.133 154.947 180.644 156.127C180.155 157.308 179.439 158.38 178.536 159.283C177.632 160.187 176.56 160.903 175.38 161.392C174.2 161.881 172.936 162.132 171.658 162.132H123.756C122.479 162.132 121.214 161.881 120.034 161.392C118.854 160.903 117.782 160.187 116.879 159.283C115.976 158.38 115.259 157.308 114.771 156.128C114.282 154.947 114.03 153.682 114.03 152.405V29.1162C114.03 27.8388 114.282 26.5739 114.771 25.3937C115.259 24.2135 115.976 23.1411 116.879 22.2378C117.782 21.3345 118.854 20.618 120.034 20.1291C121.214 19.6403 122.479 19.3887 123.756 19.3887Z" fill="white"/>
<path d="M157.969 53.9282H137.443V58.8823H157.969V53.9282Z" fill="#40A4BD"/>
<path d="M158.947 75.2155H136.467V80.1695H158.947V75.2155Z" fill="#E5E5E5"/>
<path d="M172.793 85.8575H122.619V90.8116H172.793V85.8575Z" fill="#E5E5E5"/>
<path d="M172.793 96.4996H122.619V101.454H172.793V96.4996Z" fill="#E5E5E5"/>
<path d="M147.732 144.207C155.673 144.207 162.11 137.769 162.11 129.827C162.11 121.885 155.673 115.446 147.732 115.446C139.792 115.446 133.354 121.885 133.354 129.827C133.354 137.769 139.792 144.207 147.732 144.207Z" fill="#40A4BD"/>
<path d="M146.363 135.897L142.06 130.363L144.562 128.416L146.599 131.036L153.483 123.768L155.785 125.95L146.363 135.897Z" fill="white"/>
<path d="M73.2919 164.687L77.3141 164.687L79.2275 149.172L73.2911 149.173L73.2919 164.687Z" fill="#FFB6B6"/>
<path d="M87.0723 164.596C87.1976 164.807 87.2637 165.488 87.2637 165.733C87.2637 166.487 86.6525 167.098 85.8985 167.098H73.4421C72.9277 167.098 72.5108 166.681 72.5108 166.167V165.648C72.5108 165.648 71.8945 164.09 73.1632 162.168C73.1632 162.168 74.74 163.673 77.0961 161.317L77.7909 160.058L82.8202 163.736L85.608 164.079C86.2178 164.154 86.7586 164.068 87.0723 164.596Z" fill="#2F2E41"/>
<path d="M30.832 159.656L34.5075 161.289L42.5586 147.89L37.1339 145.479L30.832 159.656Z" fill="#FFB6B6"/>
<path d="M43.4613 165.171C43.49 165.414 43.2738 166.063 43.1742 166.287C42.8679 166.976 42.0611 167.286 41.3722 166.98L29.9899 161.92C29.5199 161.711 29.3083 161.16 29.5173 160.69L29.7279 160.217C29.7279 160.217 29.7981 158.542 31.7378 157.302C31.7378 157.302 32.5675 159.317 35.6776 158.121L36.8238 157.253L39.9252 162.658L42.3331 164.104C42.8599 164.42 43.3892 164.56 43.4613 165.171Z" fill="#2F2E41"/>
<path d="M82.0332 67.6091L85.6094 75.1191L79.5299 153.08H71.927L68.8014 101.94L41.5154 153.08H32.1892L46.2715 116.603L55.9271 69.0396L82.0332 67.6091Z" fill="#2F2E41"/>
<path d="M62.8849 19.4471H72.3149L75.7733 24.8738L83.5742 28.6047L81.8784 52.0074L82.7291 69.0709L81.5634 69.0369C73.2412 68.794 64.9228 70.1477 57.1996 73.2575C55.2182 74.0553 53.1412 74.5003 51.3532 74.0533C51.3532 74.0533 52.0315 71.34 52.7099 70.6616C53.3882 69.9833 53.7274 69.4225 53.3882 69.0246C53.049 68.6266 52.3707 68.2875 53.049 67.6091C53.7273 66.9308 53.7274 66.0762 53.7274 66.0762L55.7624 50.9899L51.6923 29.6222L60.1716 24.8739L62.8849 19.4471Z" fill="#40A4BD"/>
<path d="M46.6813 49.0333L46.9383 69.0482L51.9184 86.8902L55.8994 85.4052L54.1318 69.0512L54.3642 46.9199L46.6813 49.0333Z" fill="#FFB6B6"/>
<path d="M51.9347 89.7672C51.4676 87.2017 52.3238 84.897 53.8471 84.6197C55.3704 84.3423 56.984 86.1973 57.4511 88.7629C57.9182 91.3284 57.062 93.633 55.5387 93.9104C54.0154 94.1877 52.4019 92.3328 51.9347 89.7672Z" fill="#FFB6B6"/>
<path d="M53.7273 28.6047C53.7273 28.6047 48.1083 29.4754 48.0349 34.2972C47.9614 39.119 42.5347 46.9198 45.9264 53.0249L54.7448 54.3816L59.4932 37.084L54.0665 27.9264" fill="#40A4BD"/>
<path d="M79.3751 45.5084L90.5729 62.0996L104.527 74.2827L107.04 70.8567L96.5883 58.1547L84.6382 39.5256L79.3751 45.5084Z" fill="#FFB6B6"/>
<path d="M106.12 76.6787C104.322 74.7902 103.773 72.3937 104.894 71.326C106.015 70.2582 108.382 70.9235 110.18 72.812C111.979 74.7004 112.528 77.0969 111.406 78.1647C110.285 79.2324 107.918 78.5671 106.12 76.6787Z" fill="#FFB6B6"/>
<path d="M74.0564 24.5634C74.0564 24.5634 69.8367 28.3746 72.4212 32.4459C75.0057 36.5172 74.7497 46.0165 80.9352 49.2591L89.0518 45.5543C88.368 38.8657 87.9692 31.931 83.5295 28.488L73.9677 23.8102" fill="#40A4BD"/>
<path d="M69.0632 18.0493C64.4032 18.0493 60.6255 14.2716 60.6255 9.61157C60.6255 4.95153 64.4032 1.17383 69.0632 1.17383C73.7233 1.17383 77.501 4.95153 77.501 9.61157C77.501 14.2716 73.7233 18.0493 69.0632 18.0493Z" fill="#FFB6B6"/>
<path d="M62.8661 16.5444C62.4013 16.6236 61.8557 15.4971 61.3343 14.3999C60.2429 12.1031 59.549 10.643 59.4962 8.57911C59.4512 6.82011 59.9399 7.28178 60.4153 3.37107C60.5721 2.08121 62.7757 2.0837 63.2242 1.47121C63.9818 0.436624 62.8194 0.00994647 64.7042 -0.611554C68.2347 -1.77565 69.8312 0.0327286 72.0733 0.188521C72.13 0.192464 73.2415 1.27946 73.8623 1.33567C74.9499 1.43415 76.5189 1.26474 77.2223 -0.392331C77.88 -1.94171 78.3156 2.5859 77.7278 3.14622C77.2287 3.62194 76.3677 4.81601 76.3458 4.90284C76.3209 5.00112 78.3929 2.70585 78.7388 3.65172C78.9877 4.33246 78.2041 7.83477 77.5712 7.9664C77.0419 8.07646 75.7473 6.33179 76.0394 7.04733C76.7168 8.70679 72.6438 9.76564 67.7678 6.43463C67.5949 6.31649 67.7582 6.5049 67.1551 7.9664C66.3944 9.8097 66.2227 9.90954 66.236 10.4172C66.2648 11.5163 67.0899 11.8399 66.8487 12.5617C66.6534 13.1464 65.8899 13.599 65.3169 13.4808C64.6704 13.3474 64.5596 12.5475 64.0915 12.5617C63.6906 12.5739 63.2149 13.1777 63.1725 13.7872C63.0832 15.071 64.9839 15.4241 65.3169 17.1571C65.5049 18.1351 63.2932 16.4715 62.8661 16.5444Z" fill="#2F2E41"/>
</g>
<defs>
<clipPath id="clip0_917_3483">
<rect width="187" height="167" fill="white" transform="matrix(-1 0 0 1 187.437 0)"/>
</clipPath>
</defs>
</svg>
