<svg width="240" height="150" viewBox="0 0 240 150" fill="none" xmlns="http://www.w3.org/2000/svg">
<g id="undraw_two_factor_authentication_namy 1" clip-path="url(#clip0_917_3514)">
<path id="Vector" d="M239.437 61.6065H239.033V50.5652C239.033 49.726 238.868 48.895 238.546 48.1197C238.224 47.3444 237.753 46.6399 237.159 46.0465C236.564 45.4531 235.859 44.9824 235.082 44.6612C234.306 44.3401 233.474 44.1748 232.633 44.1748H209.206C208.366 44.1748 207.534 44.3401 206.757 44.6612C205.981 44.9824 205.275 45.4531 204.681 46.0465C204.087 46.6399 203.615 47.3444 203.294 48.1197C202.972 48.895 202.807 49.726 202.807 50.5652V111.138C202.807 111.978 202.972 112.809 203.294 113.584C203.615 114.359 204.087 115.064 204.681 115.657C205.275 116.251 205.981 116.721 206.757 117.042C207.534 117.364 208.366 117.529 209.206 117.529H232.633C233.474 117.529 234.306 117.364 235.082 117.042C235.859 116.721 236.564 116.251 237.159 115.657C237.753 115.064 238.224 114.359 238.546 113.584C238.868 112.809 239.033 111.978 239.033 111.138V69.4658H239.437V61.6065Z" fill="#3F3D56"/>
<path id="Vector_2" d="M237.672 50.9407V111.426C237.671 112.692 237.168 113.906 236.271 114.801C235.375 115.696 234.159 116.199 232.892 116.199H209.352C208.724 116.199 208.103 116.075 207.523 115.835C206.943 115.595 206.417 115.244 205.973 114.801C205.529 114.357 205.177 113.831 204.937 113.252C204.697 112.673 204.574 112.053 204.574 111.426V50.9407C204.574 49.6754 205.078 48.462 205.974 47.5673C206.87 46.6726 208.085 46.1699 209.352 46.1699H212.208C212.068 46.5142 212.014 46.8875 212.053 47.2571C212.091 47.6267 212.219 47.9813 212.427 48.2897C212.635 48.5981 212.915 48.8508 213.243 49.0257C213.572 49.2006 213.938 49.2923 214.31 49.2926H227.731C228.104 49.2933 228.471 49.2024 228.8 49.0278C229.129 48.8532 229.41 48.6004 229.617 48.2917C229.825 47.983 229.954 47.6279 229.991 47.2578C230.029 46.8878 229.975 46.5141 229.834 46.1699H232.892C234.159 46.1699 235.374 46.6724 236.271 47.5671C237.167 48.4617 237.671 49.6752 237.672 50.9407Z" fill="#D0CDE1"/>
<path id="Vector_3" d="M233.214 77.1367H205.851V84.5098H233.214V77.1367Z" fill="#40A4BD"/>
<path id="Vector_4" d="M234.3 83.2088H207.805C207.632 83.2086 207.466 83.14 207.344 83.018C207.222 82.896 207.154 82.7307 207.153 82.5582V76.0525C207.154 75.8801 207.222 75.7147 207.344 75.5927C207.466 75.4708 207.632 75.4022 207.805 75.402H234.3C234.473 75.4022 234.638 75.4708 234.761 75.5927C234.883 75.7147 234.951 75.8801 234.952 76.0525V82.5582C234.951 82.7307 234.883 82.896 234.761 83.018C234.638 83.14 234.473 83.2086 234.3 83.2088ZM207.805 75.8357C207.747 75.8357 207.692 75.8586 207.651 75.8993C207.611 75.9399 207.588 75.995 207.588 76.0525V82.5582C207.588 82.6157 207.611 82.6708 207.651 82.7115C207.692 82.7521 207.747 82.775 207.805 82.775H234.3C234.358 82.775 234.413 82.7521 234.454 82.7115C234.494 82.6708 234.517 82.6157 234.517 82.5582V76.0525C234.517 75.995 234.494 75.9399 234.454 75.8993C234.413 75.8586 234.358 75.8357 234.3 75.8357H207.805Z" fill="#3F3D56"/>
<path id="Vector_5" d="M212.366 81.257H208.892V81.6907H212.366V81.257Z" fill="#3F3D56"/>
<path id="Vector_6" d="M217.144 81.257H213.669V81.6907H217.144V81.257Z" fill="#3F3D56"/>
<path id="Vector_7" d="M221.922 81.257H218.447V81.6907H221.922V81.257Z" fill="#3F3D56"/>
<path id="Vector_8" d="M226.699 81.257H223.225V81.6907H226.699V81.257Z" fill="#3F3D56"/>
<path id="Vector_9" d="M231.478 81.257H228.003V81.6907H231.478V81.257Z" fill="#3F3D56"/>
<path id="Vector_10" opacity="0.1" d="M237.672 105.276V111.426C237.671 112.692 237.168 113.906 236.271 114.801C235.375 115.696 234.159 116.199 232.892 116.199H209.352C208.724 116.199 208.103 116.075 207.523 115.835C206.943 115.595 206.417 115.244 205.973 114.801C205.529 114.357 205.177 113.831 204.937 113.252C204.697 112.673 204.574 112.053 204.574 111.426V83.135L237.672 105.276Z" fill="black"/>
<path id="Vector_11" d="M124.845 99.6897H22.1221V150H124.845V99.6897Z" fill="#D0CDE1"/>
<path id="Vector_12" opacity="0.1" d="M98.7302 150H22.5564C22.4413 150 22.331 149.954 22.2497 149.873C22.1683 149.791 22.1224 149.681 22.1221 149.566V100.123C22.1224 100.008 22.1683 99.8984 22.2497 99.8171C22.331 99.7358 22.4413 99.69 22.5564 99.6897H23.5207L98.7302 150Z" fill="black"/>
<path id="Vector_13" d="M228.871 106.412H69.6826V106.846H228.871V106.412Z" fill="#3F3D56"/>
<path id="Vector_14" d="M120.011 0.936327H74.5152V0H53.8857V0.936327H8.20244C7.79831 0.936326 7.39813 1.01581 7.02475 1.17024C6.65138 1.32467 6.31213 1.55102 6.02636 1.83636C5.74059 2.12171 5.51391 2.46047 5.35925 2.83329C5.2046 3.20611 5.125 3.60571 5.125 4.00925V66.2153C5.125 67.0303 5.44923 67.8119 6.02636 68.3882C6.60349 68.9645 7.38625 69.2883 8.20244 69.2883H120.011C120.827 69.2883 121.61 68.9645 122.187 68.3882C122.764 67.8119 123.088 67.0303 123.088 66.2153V4.00925C123.088 3.60571 123.009 3.20611 122.854 2.83329C122.699 2.46047 122.473 2.12171 122.187 1.83636C121.901 1.55102 121.562 1.32467 121.189 1.17024C120.815 1.01581 120.415 0.936326 120.011 0.936327Z" fill="#3F3D56"/>
<path id="Vector_15" d="M118.962 6.36621H9.25195V68.1655H118.962V6.36621Z" fill="#D0CDE1"/>
<path id="Vector_16" d="M64.0129 4.68164C64.6344 4.68164 65.1382 4.17859 65.1382 3.55804C65.1382 2.9375 64.6344 2.43445 64.0129 2.43445C63.3915 2.43445 62.8877 2.9375 62.8877 3.55804C62.8877 4.17859 63.3915 4.68164 64.0129 4.68164Z" fill="#40A4BD"/>
<path id="Vector_17" d="M41.8846 29.4287H39.2785C39.1057 29.4285 38.9401 29.3599 38.818 29.2379C38.6958 29.1159 38.6271 28.9506 38.627 28.7781V26.1758C38.6271 26.0034 38.6958 25.838 38.818 25.716C38.9401 25.5941 39.1057 25.5255 39.2785 25.5253H41.8846C42.0573 25.5255 42.2229 25.5941 42.345 25.716C42.4672 25.838 42.5359 26.0034 42.5361 26.1758V28.7781C42.5359 28.9506 42.4672 29.1159 42.345 29.2379C42.2229 29.3599 42.0573 29.4285 41.8846 29.4287ZM39.2785 25.959C39.2209 25.9591 39.1657 25.9819 39.125 26.0226C39.0843 26.0632 39.0614 26.1183 39.0613 26.1758V28.7781C39.0614 28.8356 39.0843 28.8907 39.125 28.9313C39.1657 28.972 39.2209 28.9949 39.2785 28.9949H41.8846C41.9421 28.9949 41.9973 28.972 42.038 28.9313C42.0788 28.8907 42.1017 28.8356 42.1017 28.7781V26.1758C42.1017 26.1183 42.0788 26.0632 42.038 26.0226C41.9973 25.9819 41.9421 25.9591 41.8846 25.959H39.2785Z" fill="#3F3D56"/>
<path id="Vector_18" d="M88.3594 28.995H38.8438V29.4287H88.3594V28.995Z" fill="#3F3D56"/>
<path id="Vector_19" d="M87.0571 40.922H75.5469V44.3917H87.0571V40.922Z" fill="#40A4BD"/>
<path id="Vector_20" d="M87.9249 43.5242H77.2834C77.1106 43.524 76.945 43.4554 76.8229 43.3335C76.7007 43.2115 76.632 43.0462 76.6318 42.8737V40.2714C76.632 40.0989 76.7007 39.9336 76.8229 39.8116C76.945 39.6896 77.1106 39.621 77.2834 39.6208H87.9249C88.0976 39.621 88.2632 39.6896 88.3854 39.8116C88.5075 39.9336 88.5762 40.0989 88.5764 40.2714V42.8737C88.5762 43.0462 88.5075 43.2115 88.3854 43.3335C88.2632 43.4554 88.0976 43.524 87.9249 43.5242ZM77.2834 40.0546C77.2258 40.0546 77.1706 40.0775 77.1299 40.1182C77.0892 40.1588 77.0663 40.2139 77.0662 40.2714V42.8737C77.0663 42.9312 77.0892 42.9863 77.1299 43.0269C77.1706 43.0676 77.2258 43.0905 77.2834 43.0905H87.9249C87.9825 43.0905 88.0376 43.0676 88.0784 43.0269C88.1191 42.9863 88.142 42.9312 88.1421 42.8737V40.2714C88.142 40.2139 88.1191 40.1588 88.0784 40.1182C88.0376 40.0775 87.9825 40.0546 87.9249 40.0546H77.2834Z" fill="#3F3D56"/>
<path id="Vector_21" d="M175.012 44.8254H153.295V60.0053H175.012V44.8254Z" fill="#40A4BD"/>
<path id="Vector_22" d="M177.184 58.8125H156.335C156.105 58.8123 155.884 58.7208 155.721 58.5582C155.559 58.3956 155.467 58.1751 155.467 57.9451V43.6327C155.467 43.4027 155.559 43.1822 155.721 43.0196C155.884 42.857 156.105 42.7655 156.335 42.7653H177.184C177.415 42.7655 177.635 42.857 177.798 43.0196C177.961 43.1822 178.053 43.4027 178.053 43.6327V57.9451C178.053 58.1751 177.961 58.3956 177.798 58.5582C177.635 58.7208 177.415 58.8123 177.184 58.8125ZM156.335 43.6327V57.9451H177.185L177.184 43.6327H156.335Z" fill="#3F3D56"/>
<path id="Vector_23" d="M174.795 43.0905H173.926C173.926 41.1926 173.171 39.3724 171.827 38.0303C170.483 36.6883 168.66 35.9343 166.759 35.9343C164.858 35.9343 163.035 36.6883 161.691 38.0303C160.347 39.3724 159.592 41.1926 159.592 43.0905H158.724C158.724 40.9625 159.57 38.9217 161.077 37.417C162.584 35.9122 164.628 35.0669 166.759 35.0669C168.89 35.0669 170.934 35.9122 172.441 37.417C173.948 38.9217 174.795 40.9625 174.795 43.0905Z" fill="#3F3D56"/>
<path id="Vector_24" d="M168.931 49.054C168.932 48.6764 168.834 48.3052 168.646 47.9772C168.459 47.6492 168.189 47.3757 167.863 47.1838C167.538 46.9919 167.167 46.8883 166.789 46.8831C166.411 46.878 166.038 46.9716 165.707 47.1546C165.376 47.3376 165.099 47.6036 164.903 47.9265C164.707 48.2493 164.598 48.6177 164.589 48.9952C164.579 49.3727 164.668 49.7462 164.847 50.0788C165.026 50.4113 165.289 50.6914 165.61 50.8913V53.2189C165.61 53.3697 165.64 53.519 165.698 53.6583C165.755 53.7975 165.84 53.9241 165.947 54.0307C166.053 54.1373 166.18 54.2219 166.32 54.2796C166.459 54.3373 166.609 54.367 166.76 54.367C167.065 54.367 167.357 54.246 167.573 54.0307C167.788 53.8154 167.909 53.5234 167.909 53.2189V50.8913C168.222 50.697 168.48 50.4263 168.659 50.1048C168.838 49.7834 168.931 49.4217 168.931 49.054Z" fill="#3F3D56"/>
<path id="Vector_25" d="M65.6652 122.026H62.1904V122.459H65.6652V122.026Z" fill="#3F3D56"/>
<path id="Vector_26" d="M70.4426 122.026H66.9678V122.459H70.4426V122.026Z" fill="#3F3D56"/>
<path id="Vector_27" d="M75.2209 122.026H71.7461V122.459H75.2209V122.026Z" fill="#3F3D56"/>
<path id="Vector_28" d="M79.9982 122.026H76.5234V122.459H79.9982V122.026Z" fill="#3F3D56"/>
<path id="Vector_29" d="M84.7765 122.026H81.3018V122.459H84.7765V122.026Z" fill="#3F3D56"/>
<path id="Vector_30" d="M129.406 146.313H27.5513C27.321 146.313 27.1002 146.222 26.9373 146.059C26.7745 145.897 26.6829 145.676 26.6826 145.446V96.0032C26.6829 95.7732 26.7745 95.5527 26.9373 95.3901C27.1002 95.2275 27.321 95.136 27.5513 95.1357H129.406C129.636 95.136 129.857 95.2274 130.02 95.3901C130.183 95.5527 130.274 95.7732 130.274 96.0032V145.446C130.274 145.676 130.183 145.897 130.02 146.059C129.857 146.222 129.636 146.313 129.406 146.313ZM27.5513 96.0032V145.446H129.406L129.406 96.0032H27.5513Z" fill="#3F3D56"/>
<path id="Vector_31" d="M32.1116 103.376C32.8313 103.376 33.4147 102.794 33.4147 102.075C33.4147 101.356 32.8313 100.774 32.1116 100.774C31.392 100.774 30.8086 101.356 30.8086 102.075C30.8086 102.794 31.392 103.376 32.1116 103.376Z" fill="#3F3D56"/>
<path id="Vector_32" d="M36.6722 103.376C37.3918 103.376 37.9752 102.794 37.9752 102.075C37.9752 101.356 37.3918 100.774 36.6722 100.774C35.9525 100.774 35.3691 101.356 35.3691 102.075C35.3691 102.794 35.9525 103.376 36.6722 103.376Z" fill="#3F3D56"/>
<path id="Vector_33" d="M41.2327 103.376C41.9524 103.376 42.5358 102.794 42.5358 102.075C42.5358 101.356 41.9524 100.774 41.2327 100.774C40.5131 100.774 39.9297 101.356 39.9297 102.075C39.9297 102.794 40.5131 103.376 41.2327 103.376Z" fill="#3F3D56"/>
<path id="Vector_34" d="M88.1429 125.062H58.8244C58.6516 125.061 58.486 124.993 58.3639 124.871C58.2417 124.749 58.173 124.584 58.1729 124.411V117.038C58.173 116.866 58.2417 116.7 58.3639 116.578C58.486 116.456 58.6516 116.388 58.8244 116.387H88.1429C88.3156 116.388 88.4812 116.456 88.6033 116.578C88.7255 116.7 88.7942 116.866 88.7944 117.038V124.411C88.7942 124.584 88.7255 124.749 88.6033 124.871C88.4812 124.993 88.3156 125.061 88.1429 125.062ZM58.8244 116.821C58.7668 116.821 58.7116 116.844 58.6709 116.885C58.6302 116.925 58.6073 116.981 58.6072 117.038V124.411C58.6073 124.469 58.6302 124.524 58.6709 124.564C58.7116 124.605 58.7668 124.628 58.8244 124.628H88.1429C88.2004 124.628 88.2556 124.605 88.2963 124.564C88.3371 124.524 88.36 124.469 88.36 124.411V117.038C88.36 116.981 88.3371 116.925 88.2963 116.885C88.2556 116.844 88.2004 116.821 88.1429 116.821H58.8244Z" fill="#3F3D56"/>
<path id="Vector_35" d="M95.5263 125.279C97.6853 125.279 99.4354 123.531 99.4354 121.375C99.4354 119.219 97.6853 117.472 95.5263 117.472C93.3674 117.472 91.6172 119.219 91.6172 121.375C91.6172 123.531 93.3674 125.279 95.5263 125.279Z" fill="#40A4BD"/>
<path id="Vector_36" d="M96.8294 124.845C96.0133 124.845 95.2155 124.603 94.537 124.15C93.8584 123.698 93.3295 123.054 93.0172 122.301C92.7049 121.548 92.6232 120.72 92.7824 119.921C92.9416 119.122 93.3346 118.387 93.9117 117.811C94.4888 117.235 95.224 116.843 96.0244 116.684C96.8249 116.525 97.6545 116.606 98.4085 116.918C99.1625 117.23 99.8069 117.758 100.26 118.436C100.714 119.113 100.956 119.91 100.956 120.725C100.954 121.817 100.519 122.864 99.7458 123.637C98.9722 124.409 97.9234 124.844 96.8294 124.845ZM96.8294 117.038C96.0992 117.038 95.3854 117.254 94.7783 117.659C94.1712 118.064 93.6979 118.64 93.4185 119.314C93.1391 119.987 93.066 120.729 93.2084 121.444C93.3509 122.159 93.7025 122.816 94.2188 123.331C94.7352 123.847 95.393 124.198 96.1092 124.34C96.8253 124.483 97.5677 124.41 98.2423 124.131C98.9169 123.852 99.4935 123.379 99.8992 122.773C100.305 122.166 100.521 121.454 100.521 120.725C100.52 119.747 100.131 118.81 99.4388 118.119C98.7467 117.428 97.8083 117.039 96.8294 117.038Z" fill="#3F3D56"/>
<path id="Vector_37" d="M96.8876 122.263L94.7852 120.164L95.3993 119.551L96.7716 120.921L100.601 115.487L101.311 115.987L96.8876 122.263Z" fill="#3F3D56"/>
<path id="Vector_38" opacity="0.1" d="M94.6382 68.1655H9.25195V11.0481L94.6382 68.1655Z" fill="black"/>
<path id="Vector_39" d="M126.169 67.0411H115.462V66.2708C115.462 66.2507 115.458 66.2309 115.45 66.2123C115.442 66.1938 115.431 66.177 115.417 66.1628C115.403 66.1486 115.386 66.1373 115.367 66.1297C115.349 66.122 115.329 66.118 115.309 66.118H111.638C111.618 66.118 111.598 66.122 111.579 66.1297C111.561 66.1373 111.544 66.1486 111.53 66.1628C111.515 66.177 111.504 66.1938 111.496 66.2123C111.489 66.2309 111.485 66.2507 111.485 66.2708V67.0411H109.19V66.2708C109.19 66.2507 109.186 66.2309 109.179 66.2123C109.171 66.1938 109.16 66.177 109.146 66.1628C109.131 66.1486 109.115 66.1373 109.096 66.1297C109.077 66.122 109.058 66.118 109.037 66.118H105.366C105.346 66.118 105.326 66.122 105.308 66.1297C105.289 66.1373 105.272 66.1486 105.258 66.1628C105.244 66.177 105.233 66.1938 105.225 66.2123C105.217 66.2309 105.213 66.2507 105.213 66.2708V67.0411H102.919V66.2708C102.919 66.2507 102.915 66.2309 102.907 66.2123C102.9 66.1938 102.888 66.177 102.874 66.1628C102.86 66.1486 102.843 66.1373 102.825 66.1297C102.806 66.122 102.786 66.118 102.766 66.118H99.0951C99.075 66.118 99.0551 66.122 99.0366 66.1297C99.018 66.1373 99.0011 66.1486 98.9869 66.1628C98.9727 66.177 98.9615 66.1938 98.9538 66.2123C98.9461 66.2309 98.9421 66.2507 98.9421 66.2708V67.0411H96.6478V66.2708C96.6478 66.2507 96.6438 66.2309 96.6361 66.2123C96.6284 66.1938 96.6172 66.177 96.603 66.1628C96.5888 66.1486 96.5719 66.1373 96.5533 66.1297C96.5348 66.122 96.5149 66.118 96.4948 66.118H92.8238C92.8037 66.118 92.7838 66.122 92.7652 66.1297C92.7467 66.1373 92.7298 66.1486 92.7156 66.1628C92.7014 66.177 92.6901 66.1938 92.6825 66.2123C92.6748 66.2309 92.6708 66.2507 92.6708 66.2708V67.0411H90.3764V66.2708C90.3764 66.2507 90.3725 66.2309 90.3648 66.2123C90.3571 66.1938 90.3458 66.177 90.3316 66.1628C90.3174 66.1486 90.3006 66.1373 90.282 66.1297C90.2635 66.122 90.2436 66.118 90.2235 66.118H86.5525C86.5324 66.118 86.5125 66.122 86.4939 66.1297C86.4754 66.1373 86.4585 66.1486 86.4443 66.1628C86.4301 66.177 86.4188 66.1938 86.4111 66.2123C86.4035 66.2309 86.3995 66.2507 86.3995 66.2708V67.0411H84.1051V66.2708C84.1051 66.2507 84.1012 66.2309 84.0935 66.2123C84.0858 66.1938 84.0745 66.177 84.0603 66.1628C84.0461 66.1486 84.0292 66.1373 84.0107 66.1297C83.9921 66.122 83.9722 66.118 83.9522 66.118H80.2811C80.261 66.118 80.2412 66.122 80.2226 66.1297C80.204 66.1373 80.1872 66.1486 80.173 66.1628C80.1588 66.177 80.1475 66.1938 80.1398 66.2123C80.1321 66.2309 80.1282 66.2507 80.1282 66.2708V67.0411H77.8338V66.2708C77.8338 66.2507 77.8298 66.2309 77.8222 66.2123C77.8145 66.1938 77.8032 66.177 77.789 66.1628C77.7748 66.1486 77.7579 66.1373 77.7394 66.1297C77.7208 66.122 77.7009 66.118 77.6808 66.118H48.9245C48.9044 66.118 48.8846 66.122 48.866 66.1297C48.8474 66.1373 48.8306 66.1486 48.8164 66.1628C48.8022 66.177 48.7909 66.1938 48.7832 66.2123C48.7755 66.2309 48.7716 66.2507 48.7716 66.2708V67.0411H46.4772V66.2708C46.4772 66.2507 46.4732 66.2309 46.4655 66.2123C46.4579 66.1938 46.4466 66.177 46.4324 66.1628C46.4182 66.1486 46.4013 66.1373 46.3828 66.1297C46.3642 66.122 46.3443 66.118 46.3242 66.118H42.6532C42.6331 66.118 42.6132 66.122 42.5947 66.1297C42.5761 66.1373 42.5593 66.1486 42.5451 66.1628C42.5309 66.177 42.5196 66.1938 42.5119 66.2123C42.5042 66.2309 42.5003 66.2507 42.5003 66.2708V67.0411H40.2059V66.2708C40.2059 66.2507 40.2019 66.2309 40.1942 66.2123C40.1865 66.1938 40.1753 66.177 40.1611 66.1628C40.1469 66.1486 40.13 66.1373 40.1114 66.1297C40.0929 66.122 40.073 66.118 40.0529 66.118H36.3819C36.3618 66.118 36.3419 66.122 36.3234 66.1297C36.3048 66.1373 36.2879 66.1486 36.2737 66.1628C36.2595 66.177 36.2483 66.1938 36.2406 66.2123C36.2329 66.2309 36.2289 66.2507 36.2289 66.2708V67.0411H33.9346V66.2708C33.9346 66.2507 33.9306 66.2309 33.9229 66.2123C33.9152 66.1938 33.904 66.177 33.8898 66.1628C33.8755 66.1486 33.8587 66.1373 33.8401 66.1297C33.8216 66.122 33.8017 66.118 33.7816 66.118H30.1106C30.0905 66.118 30.0706 66.122 30.052 66.1297C30.0335 66.1373 30.0166 66.1486 30.0024 66.1628C29.9882 66.177 29.977 66.1938 29.9693 66.2123C29.9616 66.2309 29.9576 66.2507 29.9576 66.2708V67.0411H27.6632V66.2708C27.6632 66.2507 27.6593 66.2309 27.6516 66.2123C27.6439 66.1938 27.6326 66.177 27.6184 66.1628C27.6042 66.1486 27.5874 66.1373 27.5688 66.1297C27.5502 66.122 27.5304 66.118 27.5103 66.118H23.8392C23.8192 66.118 23.7993 66.122 23.7807 66.1297C23.7622 66.1373 23.7453 66.1486 23.7311 66.1628C23.7169 66.177 23.7056 66.1938 23.6979 66.2123C23.6902 66.2309 23.6863 66.2507 23.6863 66.2708V67.0411H21.3919V66.2708C21.3919 66.2507 21.388 66.2309 21.3803 66.2123C21.3726 66.1938 21.3613 66.177 21.3471 66.1628C21.3329 66.1486 21.3161 66.1373 21.2975 66.1297C21.2789 66.122 21.259 66.118 21.239 66.118H17.5679C17.5478 66.118 17.528 66.122 17.5094 66.1297C17.4908 66.1373 17.474 66.1486 17.4598 66.1628C17.4456 66.177 17.4343 66.1938 17.4266 66.2123C17.4189 66.2309 17.415 66.2507 17.415 66.2708V67.0411H15.1206V66.2708C15.1206 66.2507 15.1166 66.2309 15.1089 66.2123C15.1013 66.1938 15.09 66.177 15.0758 66.1628C15.0616 66.1486 15.0447 66.1373 15.0262 66.1297C15.0076 66.122 14.9877 66.118 14.9676 66.118H11.2966C11.2765 66.118 11.2566 66.122 11.2381 66.1297C11.2195 66.1373 11.2027 66.1486 11.1885 66.1628C11.1743 66.177 11.163 66.1938 11.1553 66.2123C11.1476 66.2309 11.1437 66.2507 11.1437 66.2708V67.0411H4.10754C3.62545 67.0411 3.14809 67.1359 2.7027 67.3201C2.25731 67.5043 1.85262 67.7743 1.51174 68.1147C1.17085 68.4551 0.900448 68.8592 0.715962 69.3039C0.531476 69.7487 0.436523 70.2253 0.436523 70.7067V72.3642C0.436526 73.3364 0.823293 74.2688 1.51174 74.9562C2.20019 75.6436 3.13393 76.0298 4.10754 76.0298H126.169C126.651 76.0298 127.128 75.935 127.574 75.7508C128.019 75.5666 128.424 75.2966 128.765 74.9562C129.106 74.6158 129.376 74.2117 129.56 73.767C129.745 73.3223 129.84 72.8456 129.84 72.3642V70.7067C129.84 70.2253 129.745 69.7487 129.56 69.3039C129.376 68.8592 129.106 68.4551 128.765 68.1147C128.424 67.7743 128.019 67.5043 127.574 67.3201C127.128 67.1359 126.651 67.0411 126.169 67.0411Z" fill="#3F3D56"/>
<path id="Vector_40" d="M92.7032 47.2108H35.3693C35.1966 47.2106 35.031 47.142 34.9088 47.0201C34.7867 46.8981 34.718 46.7328 34.7178 46.5603V22.7062C34.718 22.5337 34.7867 22.3684 34.9088 22.2464C35.031 22.1245 35.1966 22.0559 35.3693 22.0557H92.7032C92.8759 22.0559 93.0415 22.1245 93.1637 22.2464C93.2858 22.3684 93.3545 22.5337 93.3547 22.7062V46.5603C93.3545 46.7328 93.2858 46.8981 93.1637 47.0201C93.0415 47.142 92.8759 47.2106 92.7032 47.2108ZM35.3693 22.4894C35.3117 22.4894 35.2565 22.5123 35.2158 22.553C35.1751 22.5936 35.1522 22.6487 35.1521 22.7062V46.5603C35.1522 46.6178 35.1751 46.6729 35.2158 46.7135C35.2565 46.7542 35.3117 46.7771 35.3693 46.7771H92.7032C92.7608 46.7771 92.816 46.7542 92.8567 46.7135C92.8974 46.6729 92.9203 46.6178 92.9204 46.5603V22.7062C92.9203 22.6487 92.8974 22.5936 92.8567 22.553C92.816 22.5123 92.7608 22.4894 92.7032 22.4894H35.3693Z" fill="#3F3D56"/>
<path id="Vector_41" d="M41.8846 35.9343H39.2785C39.1057 35.9341 38.9401 35.8655 38.818 35.7435C38.6958 35.6216 38.6271 35.4562 38.627 35.2837V32.6814C38.6271 32.509 38.6958 32.3436 38.818 32.2216C38.9401 32.0997 39.1057 32.0311 39.2785 32.0309H41.8846C42.0573 32.0311 42.2229 32.0997 42.345 32.2216C42.4672 32.3436 42.5359 32.509 42.5361 32.6814V35.2837C42.5359 35.4562 42.4672 35.6216 42.345 35.7435C42.2229 35.8655 42.0573 35.9341 41.8846 35.9343ZM39.2785 32.4646C39.2209 32.4647 39.1657 32.4875 39.125 32.5282C39.0843 32.5688 39.0614 32.624 39.0613 32.6814V35.2837C39.0614 35.3412 39.0843 35.3963 39.125 35.437C39.1657 35.4776 39.2209 35.5005 39.2785 35.5006H41.8846C41.9421 35.5005 41.9973 35.4776 42.038 35.437C42.0788 35.3963 42.1017 35.3412 42.1017 35.2837V32.6814C42.1017 32.624 42.0788 32.5688 42.038 32.5282C41.9973 32.4875 41.9421 32.4647 41.8846 32.4646H39.2785Z" fill="#3F3D56"/>
<path id="Vector_42" d="M88.3594 35.5006H38.8438V35.9343H88.3594V35.5006Z" fill="#3F3D56"/>
<path id="Vector_43" d="M217.143 58.4872H57.9551V58.9209H217.143V58.4872Z" fill="#3F3D56"/>
<path id="Vector_44" d="M57.9555 61.5232C59.6347 61.5232 60.9959 60.164 60.9959 58.4873C60.9959 56.8105 59.6347 55.4513 57.9555 55.4513C56.2763 55.4513 54.915 56.8105 54.915 58.4873C54.915 60.164 56.2763 61.5232 57.9555 61.5232Z" fill="#3F3D56"/>
<path id="Vector_45" d="M217.144 61.3063C218.463 61.3063 219.533 60.2383 219.533 58.9209C219.533 57.6035 218.463 56.5355 217.144 56.5355C215.824 56.5355 214.755 57.6035 214.755 58.9209C214.755 60.2383 215.824 61.3063 217.144 61.3063Z" fill="#3F3D56"/>
<path id="Vector_46" d="M228.871 109.231C230.191 109.231 231.26 108.163 231.26 106.846C231.26 105.528 230.191 104.46 228.871 104.46C227.552 104.46 226.482 105.528 226.482 106.846C226.482 108.163 227.552 109.231 228.871 109.231Z" fill="#3F3D56"/>
<path id="Vector_47" d="M70.3342 109.231C71.6536 109.231 72.7231 108.163 72.7231 106.846C72.7231 105.528 71.6536 104.46 70.3342 104.46C69.0149 104.46 67.9453 105.528 67.9453 106.846C67.9453 108.163 69.0149 109.231 70.3342 109.231Z" fill="#3F3D56"/>
</g>
<defs>
<clipPath id="clip0_917_3514">
<rect width="239" height="150" fill="white" transform="translate(0.436523)"/>
</clipPath>
</defs>
</svg>
