<svg width="159" height="159" viewBox="0 0 159 159" fill="none" xmlns="http://www.w3.org/2000/svg">
<g clip-path="url(#clip0_917_3740)">
<path d="M67 18L66 19.5L76 18.5V17H69L67 18Z" fill="#FFB6B6"/>
<path d="M79.921 8.81559C79.357 11.1908 82.3047 10.8594 80.9426 15.2876C80.9426 17.8295 77.6948 17.672 75.1537 17.672H65.2785C63.57 17.78 59.9198 17.3222 60.1707 15.6282L61.5328 12.2219C62.037 10.3077 59.7893 10.1798 59.8216 8.20049C59.8563 6.07857 61.8948 4.09953 62.5543 2.6842C63.2103 1.27655 64.3611 0.0409545 67.3216 0.299777C68.335 0.388369 71.4158 0.0428893 72.4049 0.28061C74.1791 0.70702 75.8515 1.47987 77.3262 2.55476C78.1026 3.328 78.7326 4.24429 79.1787 5.2628C79.5975 6.21656 79.8529 7.26231 79.9108 8.35913V8.36936C79.9176 8.51924 79.921 8.66571 79.921 8.81559Z" fill="#2F2E41"/>
<path d="M61.3779 150.895L64.6369 150.972L66.4536 136.326L61.6441 136.212L61.3779 150.895Z" fill="#FFB6B6"/>
<path d="M72.5595 157.697C72.5595 158.247 72.1688 158.694 71.6868 158.694H65.218C65.218 158.694 64.5814 156.134 61.9859 155.033L61.8068 158.694H58.4697L58.874 152.807C58.874 152.807 57.9814 149.657 59.8353 148.047C61.6892 146.437 60.1876 146.661 60.1876 146.661L60.9169 143.017L65.9595 143.61L65.9966 149.33L68.4438 155.008L72.0332 156.781C72.3526 156.939 72.5595 157.299 72.5595 157.697Z" fill="#2F2E41"/>
<path d="M43.1104 134.711L45.5106 136.918L56.5269 127.101L52.9849 123.844L43.1104 134.711Z" fill="#FFB6B6"/>
<path d="M47.0376 147.198C46.6748 147.612 46.0868 147.691 45.7243 147.373L40.8593 143.108C40.8593 143.108 42.0671 140.763 40.8409 138.223L38.2939 140.859L35.7842 138.659L39.9672 134.498C39.9672 134.498 41.3711 131.54 43.8262 131.552C46.2813 131.563 45.0043 130.742 45.0043 130.742L47.9536 128.482L51.3552 132.253L47.6144 136.579L45.714 142.462L47.2448 146.163C47.3811 146.492 47.2997 146.899 47.0376 147.198Z" fill="#2F2E41"/>
<path d="M61.874 49.6915C61.874 49.6915 62.555 54.801 58.4688 58.8886L72.4302 64.3387L82.6459 60.5918C82.6459 60.5918 78.9001 52.7572 80.6028 50.3728L61.874 49.6915Z" fill="#FFB6B6"/>
<path d="M76.1757 18.3533L66.1302 19.2049C61.6764 22.175 59.0482 27.2156 59.1621 32.5689L59.2002 34.3613C59.2641 37.3686 59.565 40.3645 60.0522 43.3328C60.4632 45.8373 62.5547 54.4603 58.1279 58.8885L81.2835 55.4822C81.2835 55.4822 79.2404 50.0321 82.0387 43.6296C83.7981 39.6043 82.992 34.8951 82.5274 30.5265L81.7943 23.6331L76.1757 18.3533Z" fill="#40A4BD"/>
<path d="M116.131 32.1573C115.426 32.4666 114.85 32.9095 114.462 33.3958L107.561 35.9182L108.856 39.1679L115.717 36.2593C116.338 36.3031 117.054 36.1787 117.759 35.8694C119.369 35.1628 120.31 33.7589 119.861 32.7339C119.411 31.7088 117.741 31.4506 116.131 32.1573Z" fill="#FFB6B6"/>
<path d="M78.5596 22.9518C78.5596 22.9518 80.6724 20.908 83.8725 22.6112C87.0726 24.3144 97.2883 37.9397 97.2883 37.9397L111.931 33.5114L113.731 37.9397L95.2452 45.0929L78.5596 29.5861V22.9518Z" fill="#40A4BD"/>
<path d="M72.1481 16.3584C76.0656 16.3584 79.2415 13.1816 79.2415 9.26277C79.2415 5.34395 76.0656 2.16711 72.1481 2.16711C68.2305 2.16711 65.0547 5.34395 65.0547 9.26277C65.0547 13.1816 68.2305 16.3584 72.1481 16.3584Z" fill="#FFB6B6"/>
<path d="M80.943 8.13434C80.674 8.52267 79.2459 7.10197 77.0529 6.94529C76.4945 6.90442 75.2358 8.78835 73.792 8.81561C72.8352 8.83264 72.2461 8.82582 71.0678 8.81561C69.6751 8.80197 69.2937 8.77473 69.0247 8.47498C68.5037 7.89249 68.9328 6.85697 68.6842 6.77181C68.4765 6.70027 67.9384 7.34066 67.6626 8.13434C67.0837 9.80004 69.1609 12.1197 69.3652 14.2657C69.5832 16.5786 67.4379 12.147 67.6626 14.2657C67.9146 16.6502 68.817 16.4696 68.8068 17.3314C68.8034 17.4609 68.7659 17.5733 68.6842 17.6721C68.6127 17.7606 68.5412 17.7947 67.3221 18.0127C65.8647 18.275 65.1325 18.4044 64.9384 18.3533C64.4379 18.2239 63.9305 17.5051 63.5763 16.9908C62.9906 16.1494 63.4061 16.9976 63.5763 15.9689C63.7398 14.9742 64.2506 14.8448 64.2574 13.9251C64.2642 12.7669 63.4572 12.4161 62.8953 11.2C61.8567 8.95185 62.8714 6.34943 63.2358 5.40928C63.4108 4.95842 63.7282 4.3878 64.2845 3.445C64.7311 2.68813 65.3238 2.02139 66.0466 1.52182C67.13 0.773075 68.3883 0.260035 69.7489 0.0567491C70.4941 -0.0545968 71.2539 0.00387618 71.9866 0.17997L73.8844 0.636117C74.6822 0.827849 75.4342 1.17535 76.0972 1.65867C76.7153 1.66072 77.2512 2.0603 77.4631 2.64105C77.4853 2.70182 77.5054 2.73723 77.5221 2.73203C80.943 1.66233 80.9407 4.83061 80.9032 6.8098C80.8994 7.01237 80.9066 7.19164 80.9328 7.33726V7.34749C81.0009 7.7392 81.0179 8.02534 80.943 8.13434Z" fill="#2F2E41"/>
<path d="M81.6238 56.8447C81.6238 56.8447 77.878 64.6793 58.4682 57.8666C55.7923 57.711 54.238 84.3484 57.7872 97.7206C61.2351 110.712 60.6816 139.789 60.6816 139.789L66.811 139.448L71.7486 100.105L70.5568 81.5406L73.962 104.704L49.4443 125.823L53.1901 131.614L85.8803 108.791C85.8803 108.791 89.2855 67.9153 81.6238 56.8447Z" fill="#2F2E41"/>
<path d="M96.7209 32.1573C96.016 32.4666 95.4394 32.9095 95.0515 33.3958L88.1504 35.9182L89.4463 39.1679L96.3073 36.2593C96.9276 36.3031 97.6439 36.1787 98.3488 35.8694C99.9591 35.1628 100.9 33.7589 100.451 32.7339C100.001 31.7088 98.3312 31.4506 96.7209 32.1573Z" fill="#FFB6B6"/>
<path d="M59.1494 25.7853C59.1494 23.1043 61.9813 21.3387 64.3667 22.5612C64.3985 22.5775 64.4304 22.5941 64.4624 22.6112C67.6625 24.3143 77.8782 37.9396 77.8782 37.9396L92.5207 33.5114L94.3211 37.9396L75.835 45.0929L60.321 30.6749C59.5739 29.9806 59.1494 29.0065 59.1494 27.9864V25.7853Z" fill="#40A4BD"/>
<path d="M62.5026 6.21111C60.9072 5.76666 59.974 4.11261 60.4183 2.51669C60.8626 0.920773 62.5161 -0.012676 64.1115 0.431771C65.7069 0.876221 66.8712 3.61591 65.2329 3.85794C63.2851 4.14567 64.098 6.65556 62.5026 6.21111Z" fill="#2F2E41"/>
</g>
<defs>
<clipPath id="clip0_917_3740">
<rect width="158" height="159" fill="white" transform="translate(0.436523)"/>
</clipPath>
</defs>
</svg>
