<svg width="2845" height="188" viewBox="0 0 2845 188" fill="none" xmlns="http://www.w3.org/2000/svg">
<g filter="url(#filter0_d_1318_541)">
<path fill-rule="evenodd" clip-rule="evenodd" d="M949.65 106.76C1133.71 106.76 1195.22 -6.84356 1401.7 8.40909C1608.19 23.6617 1716.53 101.98 1895 113.733V172.26L949.65 165.26V106.76Z" fill="#40A4BD" fill-opacity="0.6"/>
<path fill-rule="evenodd" clip-rule="evenodd" d="M4 99.7599C188.118 99.7599 249.646 -13.8436 456.196 1.40909C662.746 16.6617 771.126 94.9802 949.65 106.733V165.26L4 158.26V99.7599Z" fill="#40A4BD" fill-opacity="0.6"/>
<path fill-rule="evenodd" clip-rule="evenodd" d="M1895 113.76C2079.06 113.76 2140.57 0.156442 2347.05 15.4091C2553.53 30.6617 2661.88 108.98 2840.35 120.733V179.26L1895 172.26V113.76Z" fill="#40A4BD" fill-opacity="0.6"/>
</g>
<defs>
<filter id="filter0_d_1318_541" x="0" y="0" width="2844.35" height="187.26" filterUnits="userSpaceOnUse" color-interpolation-filters="sRGB">
<feFlood flood-opacity="0" result="BackgroundImageFix"/>
<feColorMatrix in="SourceAlpha" type="matrix" values="0 0 0 0 0 0 0 0 0 0 0 0 0 0 0 0 0 0 127 0" result="hardAlpha"/>
<feOffset dy="4"/>
<feGaussianBlur stdDeviation="2"/>
<feComposite in2="hardAlpha" operator="out"/>
<feColorMatrix type="matrix" values="0 0 0 0 0 0 0 0 0 0 0 0 0 0 0 0 0 0 0.25 0"/>
<feBlend mode="normal" in2="BackgroundImageFix" result="effect1_dropShadow_1318_541"/>
<feBlend mode="normal" in="SourceGraphic" in2="effect1_dropShadow_1318_541" result="shape"/>
</filter>
</defs>
</svg>
