<svg width="1052" height="443" viewBox="0 0 1052 443" fill="none" xmlns="http://www.w3.org/2000/svg">
<path d="M392.39 119.236C410.49 108.876 433.39 94.1761 454.87 75.8261C511.18 27.6661 453.1 -6.89394 369.2 28.5561C286.69 63.3761 214.51 101.116 161 157.966" stroke="#263238" stroke-linecap="round" stroke-linejoin="round" stroke-dasharray="4.03 4.03"/>
<path d="M123.249 224.65C123.25 224.665 123.25 224.679 123.249 224.693C123.589 225.402 128.495 235.889 134.473 245.964C136.039 248.609 137.677 251.218 139.329 253.621C142.924 258.854 146.569 263.087 149.596 264.406C159.523 268.724 153.85 234.889 153.85 234.889C150.23 230.58 147.116 225.869 144.569 220.85C143.385 218.51 142.01 215.795 140.57 213.051C139.464 210.959 138.33 208.867 137.216 206.932C134.699 202.536 132.353 198.99 130.927 198.296C129.367 197.53 127.212 205.436 125.581 212.788C124.255 218.914 123.249 224.65 123.249 224.65Z" fill="white" stroke="#263238" stroke-linecap="round" stroke-linejoin="round"/>
<path d="M123.248 224.65C123.25 224.665 123.25 224.679 123.248 224.693C123.589 225.402 128.495 235.889 134.472 245.964C132.671 229.862 134.359 219.092 134.359 219.092C138.195 213.292 140.598 213.072 140.598 213.072C139.492 210.98 138.358 208.889 137.245 206.953L132.168 202.209L125.609 212.81C124.255 218.914 123.248 224.65 123.248 224.65Z" fill="#263238"/>
<path d="M77.5016 116.367C68.5394 122.854 60.6975 145.77 63.6896 160.66C66.6818 175.55 51.2886 179.804 51.3454 203.308C51.3454 209.86 71.6379 236.491 95.1991 222.282C118.76 208.073 125.305 201.082 123.064 186.83C120.824 172.579 120.724 163.205 124.979 151.244C129.233 139.283 93.7598 104.618 77.5016 116.367Z" fill="#263238"/>
<path d="M43.0282 216.872L48.034 220.269C49.338 228.485 51.6109 236.517 54.8053 244.198C61.1086 258.996 66.6887 267.816 68.6385 270.731C69.1207 271.44 69.383 271.794 69.383 271.794L64.1503 291.413C64.1503 291.413 99.0703 327.723 137.585 322.483L135.011 301.921L131.544 274.269L130.417 265.285C130.417 265.285 130.892 258.84 131.65 250.906C132.168 245.439 132.82 239.264 133.558 234.003C133.588 233.768 133.6 233.53 133.593 233.294C133.536 229.975 130.934 222.998 130.934 222.998C133.132 219.517 135.188 216.312 136.883 213.781C139.124 210.385 140.605 208.201 140.605 208.201C140.605 208.201 132.806 198.615 132.366 197.523C129.899 191.063 121.277 192.269 121.277 192.269C120.633 191.645 119.827 191.213 118.952 191.021C114.853 189.993 103.204 198.161 96.8439 198.225C90.4839 198.289 59.2651 189.879 59.2651 189.879L56.0886 191.021C56.0886 191.021 51.7848 190.51 48.424 196.736C46.8286 199.749 43.0282 216.872 43.0282 216.872Z" fill="#40A4BD"/>
<path opacity="0.3" d="M99.0844 297.731C99.0844 297.731 120.781 305.055 135.047 301.928L131.579 274.276C128.488 277.346 110.564 294.639 99.0844 297.731Z" fill="black" fill-opacity="0.7"/>
<path opacity="0.3" d="M130.97 223.027C133.168 219.545 135.224 216.341 136.919 213.809C135.444 210.264 133.253 206.981 130.218 207.173C130.218 207.173 132.338 216.589 130.97 223.027Z" fill="black" fill-opacity="0.7"/>
<path opacity="0.3" d="M60.6053 216.872C64.4979 218.163 73.3183 222.069 73.3183 222.069L74.9491 220.176L68.6741 211.186C68.6741 211.186 73.0914 212.973 74.9491 215.22C76.8068 217.468 77.296 222.481 77.3669 222.459C77.4378 222.438 78.9906 217.184 78.9906 217.184C79.5179 219.371 79.8642 221.598 80.0258 223.842C80.2314 226.217 77.6221 230.082 75.3603 232.953L79.3025 253.933L94.3341 244.794L101.424 240.497C102.044 240.171 102.643 239.806 103.218 239.405C104.041 238.739 104.58 237.874 105.537 237.278C106.631 236.665 107.812 236.222 109.039 235.967C113.528 234.922 118.192 234.885 122.695 235.86C124.596 236.271 126.545 236.86 128.432 236.413C130.318 235.967 131.934 234.456 133.593 233.322C133.6 233.559 133.588 233.796 133.558 234.031C132.849 239.292 132.14 245.468 131.651 250.934H130.842C130.319 250.905 129.794 250.948 129.282 251.062C128.198 251.36 126.042 256.649 125.298 257.486C119.859 263.555 110.762 273.794 104.154 278.579C105.473 275.034 112.372 262.626 112.244 258.727C110.762 259.223 109.607 260.364 108.415 261.378C104.828 264.456 100.545 266.597 96.3194 268.71L87.0098 273.368C84.1736 274.786 80.437 277.005 77.1754 276.133C74.5024 275.424 71.1345 272.737 69.0003 271.042L68.6458 270.759C66.6959 267.845 61.1158 259.024 54.8125 244.227C51.6182 236.546 49.3452 228.513 48.0412 220.297L43.0355 216.901C43.0355 216.901 56.7127 215.582 60.6053 216.872Z" fill="black" fill-opacity="0.7"/>
<path d="M137.585 322.483L130.417 265.321C130.417 265.321 131.764 246.943 133.558 234.038C133.962 231.145 130.934 223.027 130.934 223.027C136.089 214.873 140.605 208.229 140.605 208.229C140.605 208.229 132.806 198.643 132.366 197.551C129.899 191.092 121.277 192.297 121.277 192.297C120.633 191.674 119.827 191.242 118.952 191.049C114.853 190.021 103.204 198.189 96.8439 198.253C90.4839 198.317 59.2651 189.908 59.2651 189.908L56.0886 191.049C56.0886 191.049 51.7848 190.539 48.424 196.764C46.8074 199.749 42.9999 216.872 42.9999 216.872L48.0056 220.269C49.3096 228.485 51.5825 236.517 54.7769 244.199C62.633 262.633 69.3617 271.808 69.3617 271.808L64.1291 291.427" stroke="#263238" stroke-linecap="round" stroke-linejoin="round"/>
<path d="M67.8516 210.101C67.8516 210.101 76.7358 221.609 76.516 223.736C76.2962 225.863 72.1838 228.054 72.1838 228.054" stroke="#263238" stroke-linecap="round" stroke-linejoin="round"/>
<path d="M79.3025 214.717C78.8738 217.706 78.6252 220.717 78.558 223.736C78.558 227.678 67.8516 234.222 67.8516 234.222" stroke="#263238" stroke-linecap="round" stroke-linejoin="round"/>
<path d="M130.97 223.027C130.97 223.027 131.714 207.853 129.353 205.237" stroke="#263238" stroke-linecap="round" stroke-linejoin="round"/>
<path d="M133.593 210.845C133.593 210.845 132.374 218.702 131.083 220.198" stroke="#263238" stroke-linecap="round" stroke-linejoin="round"/>
<path d="M93.7031 216.872C93.7031 216.872 109.039 226.742 123.249 228.054" stroke="#263238" stroke-linecap="round" stroke-linejoin="round"/>
<path d="M123.249 260.031C123.249 260.031 106.047 280.785 94.8234 283.592" stroke="#263238" stroke-linecap="round" stroke-linejoin="round"/>
<path d="M69.3901 271.808C69.3901 271.808 73.2969 268.972 72.1837 267.313" stroke="#263238" stroke-linecap="round" stroke-linejoin="round"/>
<path d="M79.3026 288.683C79.3026 288.683 103.708 302.29 116.172 301.169" stroke="#263238" stroke-linecap="round" stroke-linejoin="round"/>
<path d="M144.789 245.064C147.972 233.364 153.184 229.55 156.623 217.021C157.644 213.313 160.671 202.004 160.671 202.004C160.671 202.004 156.807 189.95 164.528 183.087C164.528 183.087 166.655 183.087 170.279 191.432C171.792 195.078 172.185 199.092 171.406 202.961C171.406 202.961 169.002 217.659 168.478 221.609C167.216 231.131 164.479 247.077 160.678 255.082C156.601 263.64 152.305 265.555 149.086 263.789" fill="white"/>
<path d="M144.789 245.064C147.972 233.364 153.184 229.55 156.623 217.021C157.644 213.313 160.671 202.004 160.671 202.004C160.671 202.004 156.807 189.95 164.528 183.087C164.528 183.087 166.655 183.087 170.279 191.432C171.792 195.078 172.185 199.092 171.406 202.961C171.406 202.961 169.002 217.659 168.478 221.609C167.216 231.131 164.479 247.077 160.678 255.082C156.601 263.64 152.305 265.555 149.086 263.789" stroke="#263238" stroke-linecap="round" stroke-linejoin="round"/>
<path d="M159.324 199.437L151.057 202.167C150.185 202.394 148.469 200.94 148.547 200.04L151.021 171.267C151.069 170.7 151.292 170.163 151.659 169.728C152.027 169.294 152.52 168.984 153.07 168.842L162.196 166.857C163.068 166.637 165.259 167.679 165.181 168.573L161.38 197.012C161.332 197.58 161.107 198.118 160.739 198.553C160.371 198.987 159.876 199.296 159.324 199.437Z" fill="#40A4BD"/>
<mask id="mask0_266_1630" style="mask-type:luminance" maskUnits="userSpaceOnUse" x="148" y="166" width="18" height="37">
<path d="M159.324 199.437L151.057 202.167C150.185 202.394 148.469 200.94 148.547 200.04L151.021 171.267C151.069 170.7 151.292 170.163 151.659 169.728C152.027 169.294 152.52 168.984 153.07 168.842L162.196 166.857C163.068 166.637 165.259 167.679 165.181 168.573L161.38 197.012C161.332 197.58 161.107 198.118 160.739 198.553C160.371 198.987 159.876 199.296 159.324 199.437Z" fill="white"/>
</mask>
<g mask="url(#mask0_266_1630)">
<path opacity="0.3" d="M159.324 199.437L151.057 202.167C150.185 202.394 148.469 200.94 148.547 200.04L151.021 171.267C151.069 170.7 151.292 170.163 151.659 169.728C152.027 169.294 152.52 168.984 153.07 168.842L162.196 166.857C163.068 166.637 165.259 167.679 165.181 168.573L161.38 197.012C161.332 197.58 161.107 198.118 160.739 198.553C160.371 198.987 159.876 199.296 159.324 199.437Z" fill="black" fill-opacity="0.7"/>
</g>
<path d="M159.324 199.437L151.057 202.167C150.185 202.394 148.469 200.94 148.547 200.04L151.021 171.267C151.069 170.7 151.292 170.163 151.659 169.728C152.027 169.294 152.52 168.984 153.07 168.842L162.196 166.857C163.068 166.637 165.259 167.679 165.181 168.573L161.38 197.012C161.332 197.58 161.107 198.118 160.739 198.553C160.371 198.987 159.876 199.296 159.324 199.437Z" stroke="#263238" stroke-linecap="round" stroke-linejoin="round"/>
<path d="M160.685 200.146L151.56 202.124C151.359 202.178 151.148 202.181 150.945 202.136C150.741 202.09 150.552 201.996 150.393 201.862C150.234 201.728 150.109 201.557 150.03 201.365C149.95 201.172 149.918 200.963 149.937 200.756L152.376 171.976C152.424 171.409 152.648 170.87 153.017 170.436C153.385 170.001 153.88 169.692 154.432 169.551L163.55 167.566C163.752 167.514 163.963 167.512 164.166 167.558C164.369 167.605 164.558 167.7 164.717 167.834C164.876 167.969 165.001 168.14 165.08 168.333C165.159 168.525 165.192 168.734 165.174 168.942L162.735 197.721C162.686 198.288 162.463 198.826 162.096 199.26C161.729 199.695 161.236 200.004 160.685 200.146Z" fill="#40A4BD" stroke="#263238" stroke-linecap="round" stroke-linejoin="round"/>
<path opacity="0.3" d="M155.623 177.301L154.155 177.62C154.123 177.628 154.089 177.628 154.057 177.621C154.024 177.613 153.994 177.598 153.969 177.577C153.943 177.555 153.923 177.528 153.91 177.497C153.897 177.467 153.891 177.434 153.893 177.4L154.283 172.756C154.292 172.665 154.328 172.578 154.388 172.509C154.448 172.439 154.527 172.389 154.616 172.366L156.091 172.047C156.123 172.039 156.157 172.039 156.19 172.047C156.222 172.054 156.252 172.07 156.278 172.091C156.303 172.112 156.323 172.139 156.336 172.17C156.35 172.201 156.355 172.234 156.353 172.267L155.956 176.911C155.948 177.003 155.911 177.089 155.851 177.159C155.792 177.229 155.712 177.278 155.623 177.301Z" fill="black" fill-opacity="0.7"/>
<path d="M168.456 191.723C168.811 187.688 165.138 181.633 162.692 181.633C160.246 181.633 152.815 187.362 152.815 187.362C149.936 189.447 151.362 191.432 151.362 191.432C149.667 192.552 149.234 194.07 149.979 194.772C150.723 195.474 153.212 194.772 153.212 194.772C153.212 194.772 150.745 196.573 151.362 197.459C152.815 199.551 157.594 196.792 157.594 196.792C157.594 196.792 154.822 198.622 154.978 198.969C156.027 201.252 160.558 198.593 160.558 198.593L163.741 200.224C163.738 200.6 163.813 200.972 163.961 201.317C164.109 201.662 164.326 201.973 164.6 202.23C164.874 202.487 165.198 202.684 165.551 202.81C165.905 202.936 166.281 202.987 166.655 202.961" fill="white"/>
<path d="M168.456 191.723C168.811 187.688 165.138 181.633 162.692 181.633C160.246 181.633 152.815 187.362 152.815 187.362C149.936 189.447 151.362 191.432 151.362 191.432C149.667 192.552 149.234 194.07 149.979 194.772C150.723 195.474 153.212 194.772 153.212 194.772C153.212 194.772 150.745 196.573 151.362 197.459C152.815 199.551 157.594 196.792 157.594 196.792C157.594 196.792 154.822 198.622 154.978 198.969C156.027 201.252 160.558 198.593 160.558 198.593L163.741 200.224C163.738 200.6 163.813 200.972 163.961 201.317C164.109 201.662 164.326 201.973 164.6 202.23C164.874 202.487 165.198 202.684 165.551 202.81C165.905 202.936 166.281 202.987 166.655 202.961" stroke="#263238" stroke-linecap="round" stroke-linejoin="round"/>
<path d="M151.362 191.432C151.362 191.432 158.324 186.937 159.204 186.816C160.083 186.696 163.309 185.994 163.309 185.994" fill="white"/>
<path d="M151.362 191.432C151.362 191.432 158.324 186.937 159.204 186.816C160.083 186.696 163.309 185.994 163.309 185.994" stroke="#263238" stroke-linecap="round" stroke-linejoin="round"/>
<path d="M153.184 194.772C153.184 194.772 158.856 191.851 159.877 191.851C161.442 191.679 162.996 191.411 164.528 191.049" fill="white"/>
<path d="M153.184 194.772C153.184 194.772 158.856 191.851 159.877 191.851C161.442 191.679 162.996 191.411 164.528 191.049" stroke="#263238" stroke-linecap="round" stroke-linejoin="round"/>
<path d="M157.594 196.793C158.255 196.322 158.955 195.909 159.686 195.559C161.036 195.462 162.391 195.462 163.741 195.559" fill="white"/>
<path d="M157.594 196.793C158.255 196.322 158.955 195.909 159.686 195.559C161.036 195.462 162.391 195.462 163.741 195.559" stroke="#263238" stroke-linecap="round" stroke-linejoin="round"/>
<path d="M86.6907 242.079C86.6907 242.079 82.2947 239.604 78.3666 230.372C74.4386 221.141 73.3183 222.07 73.3183 222.07C73.3183 222.07 64.7177 217.851 60.6053 216.872C56.4929 215.894 49.0126 216.872 49.0126 216.872C49.0126 216.872 55.3939 235.385 61.9099 247.425C68.4259 259.464 73.6728 266.569 77.1542 267.278C80.6355 267.987 86.6907 242.079 86.6907 242.079Z" fill="white" stroke="#263238" stroke-linecap="round" stroke-linejoin="round"/>
<path d="M61.1655 191.12C61.1655 191.12 92.4622 207.79 101.51 207.697C110.557 207.605 116.194 192.099 116.194 192.099C116.194 192.099 99.4604 191.723 101.403 183.725C101.403 183.59 101.467 183.441 101.51 183.3C102.311 180.506 105.381 175.614 106.522 173.855C106.792 173.437 106.955 173.196 106.955 173.196L82.1883 154.704C83.6064 173.401 80.8696 181.598 79.1891 184.675C76.3034 189.943 61.1655 191.12 61.1655 191.12Z" fill="white" stroke="#263238" stroke-linecap="round" stroke-linejoin="round"/>
<path d="M89.2147 165.184C89.2147 165.184 94.3764 179.776 101.424 183.725C101.424 183.59 101.488 183.441 101.531 183.3C102.332 180.506 105.402 175.614 106.543 173.855L89.2147 165.184Z" fill="#263238"/>
<path d="M99.9424 203.252C99.9424 203.252 98.1911 199.87 95.5747 199.473C92.9584 199.076 85.7546 199.005 72.4319 196.792" stroke="#263238" stroke-linecap="round" stroke-linejoin="round"/>
<path d="M103.963 203.252C103.963 203.252 105.083 200.621 105.381 199.473C105.679 198.324 112.641 196.878 114.953 194.977" stroke="#263238" stroke-linecap="round" stroke-linejoin="round"/>
<path d="M122.901 123.925C127.488 128.924 128.857 145.239 126.567 152.286C126.567 152.286 115.073 153.931 112.386 151.861C109.699 149.791 122.901 123.925 122.901 123.925Z" fill="#263238"/>
<path d="M79.6782 156.874C78.5721 151.989 72.7084 128.307 86.5133 117.827C100.318 107.348 117.158 121.323 119.519 124.62C129.041 137.921 124.822 148.493 123.064 154.867C121.306 161.242 122.171 168.963 113.265 179.577C109.521 184.037 102.786 181.662 96.1491 177.046C92.1714 174.281 86.57 169.417 86.4282 164.73" fill="white"/>
<path d="M79.6782 156.874C78.5721 151.989 72.7084 128.307 86.5133 117.827C100.318 107.348 117.158 121.323 119.519 124.62C129.041 137.921 124.822 148.493 123.064 154.867C121.306 161.242 122.171 168.963 113.265 179.577C109.521 184.037 102.786 181.662 96.1491 177.046C92.1714 174.281 86.57 169.417 86.4282 164.73" stroke="#263238" stroke-linecap="round" stroke-linejoin="round"/>
<path d="M111.238 146.494C111.238 146.494 103.757 145.161 99.5243 147.812" stroke="#263238" stroke-linecap="round" stroke-linejoin="round"/>
<path d="M103.325 153.726C103.14 154.874 103.544 155.895 104.232 156.009C104.92 156.122 105.65 155.3 105.82 154.137C105.991 152.974 105.601 151.967 104.913 151.854C104.225 151.74 103.516 152.577 103.325 153.726Z" fill="#263238"/>
<path d="M118.271 153.726C118.087 154.874 118.491 155.895 119.178 156.009C119.866 156.122 120.596 155.3 120.767 154.137C120.937 152.974 120.547 151.967 119.859 151.854C119.171 151.74 118.441 152.577 118.271 153.726Z" fill="#263238"/>
<path d="M119.519 146.564C119.519 146.564 123.646 145.09 124.979 146.983" stroke="#263238" stroke-linecap="round" stroke-linejoin="round"/>
<path d="M116.917 153.158C116.491 154.775 119.753 162.064 119.519 162.695C119.285 163.326 117.682 164.446 114.811 164.73" stroke="#263238" stroke-linecap="round" stroke-linejoin="round"/>
<path d="M113.393 169.743C113.393 169.743 107.409 169.743 103.963 167.311" stroke="#263238" stroke-linecap="round" stroke-linejoin="round"/>
<path d="M121.192 120.408C121.192 120.408 127.503 126.272 123.433 137.801C122.534 140.152 121.207 142.316 119.519 144.182C115.3 141.807 113.194 145.515 110.67 144.303C108.146 143.09 104.126 145.664 101.509 145.154C100.223 144.867 98.8875 144.88 97.6065 145.191C96.3256 145.502 95.1332 146.103 94.1212 146.947C92.1572 148.706 92.1572 152.556 89.2147 154.414C89.2147 154.414 87.4989 148.394 83.8828 149.266C80.2667 150.138 83.4645 160.61 83.4645 160.61C78.933 155.087 76.1072 148.363 75.3318 141.261C73.9138 129.207 78.6785 118.678 86.6764 116.445C86.6764 116.445 89.3423 111.255 98.4605 112.091C107.579 112.928 115.846 112.417 121.192 120.408Z" fill="#263238"/>
<path d="M86.6907 150.847C86.6907 150.847 83.3228 142.594 78.4162 146.019C73.5097 149.443 79.3947 159.958 81.7841 162.624C84.1736 165.29 84.8685 162.348 85.145 161.504" fill="white"/>
<path d="M86.6907 150.847C86.6907 150.847 83.3228 142.594 78.4162 146.019C73.5097 149.443 79.3947 159.958 81.7841 162.624C84.1736 165.29 84.8685 162.348 85.145 161.504" stroke="#263238" stroke-linecap="round" stroke-linejoin="round"/>
<g opacity="0.2">
<path d="M118.98 126.407C118.839 124.341 118.22 122.336 117.172 120.55" stroke="white" stroke-linecap="round" stroke-linejoin="round"/>
<path d="M113.393 140.609C116.427 137.219 118.739 132.66 118.987 128.08" stroke="white" stroke-linecap="round" stroke-linejoin="round"/>
<path d="M106.955 134.908C105.242 137.71 102.824 140.013 99.9425 141.587" stroke="white" stroke-linecap="round" stroke-linejoin="round"/>
<path d="M108.678 120.55C111.003 124.287 109.663 129.647 107.848 133.313" stroke="white" stroke-linecap="round" stroke-linejoin="round"/>
<path d="M85.0457 141.8C83.2883 142.711 81.4423 143.441 79.5365 143.977" stroke="white" stroke-linecap="round" stroke-linejoin="round"/>
<path d="M101.51 125.464C97.9651 131.861 92.8008 137.213 86.5347 140.984" stroke="white" stroke-linecap="round" stroke-linejoin="round"/>
</g>
<path d="M136.784 186.965C136.784 186.965 138.911 186.965 139.103 188.518C139.294 190.071 136.125 192.099 136.125 192.099" fill="white"/>
<path d="M136.784 186.965C136.784 186.965 138.911 186.965 139.103 188.518C139.294 190.071 136.125 192.099 136.125 192.099" stroke="#263238" stroke-linecap="round" stroke-linejoin="round"/>
<path d="M77.0336 243.369C81.8267 236.059 88.5909 231.486 94.639 223.374C99.6451 216.647 104.264 209.64 108.472 202.387L114.889 190.333C114.889 190.333 122.745 180.86 125.922 179.698C129.098 178.535 146.484 177.982 146.484 177.982C146.484 177.982 147.193 179.868 144.505 180.818C141.818 181.768 133.586 182.541 133.586 182.541C133.586 182.541 136.011 183.583 136.571 184.441C137.131 185.299 136.571 192.347 135.451 193.779C134.331 195.211 130.027 196.516 130.027 196.516C130.027 196.516 129.46 201.479 125.255 203.94C121.05 206.4 118.994 206.428 118.994 206.428C118.994 206.428 115.038 213.15 113.386 217.95C109.841 228.181 100.9 251.445 94.4404 259.833C86.797 269.759 76.8918 270.142 73.3112 263.825" fill="white"/>
<path d="M77.0336 243.369C81.8267 236.059 88.5909 231.486 94.639 223.374C99.6451 216.647 104.264 209.64 108.472 202.387L114.889 190.333C114.889 190.333 122.745 180.86 125.922 179.698C129.098 178.535 146.484 177.982 146.484 177.982C146.484 177.982 147.193 179.868 144.505 180.818C141.818 181.768 133.586 182.541 133.586 182.541C133.586 182.541 136.011 183.583 136.571 184.441C137.131 185.299 136.571 192.347 135.451 193.779C134.331 195.211 130.027 196.516 130.027 196.516C130.027 196.516 129.46 201.479 125.255 203.94C121.05 206.4 118.994 206.428 118.994 206.428C118.994 206.428 115.038 213.15 113.386 217.95C109.841 228.181 100.9 251.445 94.4404 259.833C86.797 269.759 76.8918 270.142 73.3112 263.825" stroke="#263238" stroke-linecap="round" stroke-linejoin="round"/>
<path d="M126.24 186.285C126.24 186.285 132.338 186.994 133.111 187.547C133.884 188.1 133.515 192.46 133.111 193.985C133.042 194.382 132.887 194.759 132.657 195.09C132.427 195.421 132.127 195.697 131.778 195.899" stroke="#263238" stroke-linecap="round" stroke-linejoin="round"/>
<path d="M128.758 182.683C128.758 182.683 134.756 184.179 135.139 184.952C135.697 187.062 135.791 189.268 135.415 191.418C134.926 193.786 134.784 194.531 133.87 194.963" stroke="#263238" stroke-linecap="round" stroke-linejoin="round"/>
<path d="M133.593 182.548C132.74 182.191 131.864 181.893 130.97 181.655" stroke="#263238" stroke-linecap="round" stroke-linejoin="round"/>
<path d="M129.935 191.12C129.422 191.706 128.791 192.176 128.084 192.5C127.376 192.824 126.608 192.994 125.829 192.999C125.829 192.999 127.141 198.048 124.801 201.323" stroke="#263238" stroke-linecap="round" stroke-linejoin="round"/>
<path d="M128.757 192.099C128.757 192.099 130.112 193.198 129.934 193.786" stroke="#263238" stroke-linecap="round" stroke-linejoin="round"/>
<path d="M73.3181 222.069C73.3181 222.069 61.2645 216.794 59.5203 216.44C57.7761 216.085 44.7086 216.73 44.7086 216.73C46.3256 218.223 48.1897 219.422 50.2178 220.276C50.2178 220.276 50.5085 217.872 53.763 217.595C57.0174 217.319 73.3181 222.069 73.3181 222.069Z" fill="#263238"/>
<path d="M689.75 247.809L688 248.809" stroke="#263238" stroke-linecap="round" stroke-linejoin="round"/>
<path d="M878.022 185.495C890.237 152.48 896.456 89.0996 893.229 75.3829C877.745 10.0878 852.288 117.783 852.288 117.783" stroke="#263238" stroke-linecap="round" stroke-linejoin="round" stroke-dasharray="4 4"/>
<path fill-rule="evenodd" clip-rule="evenodd" d="M427.485 302.439C288.747 304.744 75.8625 254.613 20.6219 301.694C-44.6337 357.311 52.4309 410.012 282.215 396.006C512 382 662 176 743 330C774.063 389.058 943 459 996 391C1049 323 989.905 300.135 706.318 300.135C612.016 300.135 505.164 301.287 427.485 302.439Z" fill="url(#paint0_linear_266_1630)"/>
<rect x="235.163" y="14.4304" width="627.555" height="315.286" fill="#FAFAFA" stroke="#40A4BD"/>
<path fill-rule="evenodd" clip-rule="evenodd" d="M880.778 8.28142C880.778 3.77141 877.31 0.109985 873.045 0.109985H229.179C224.909 0.109985 221.446 3.77141 221.446 8.28142C221.446 12.7914 224.909 16.4528 229.179 16.4528H873.045C877.31 16.4528 880.778 12.7914 880.778 8.28142Z" fill="#40A4BD"/>
<path d="M797.421 123.185C763.409 184.689 768.82 267.343 720.111 267.343C694.601 267.343 650.535 122.416 611.493 175.08C537.275 275.799 509.442 173.927 467.695 205.834C425.561 238.126 412.028 293.865 373.76 293.865C350.569 293.865 336.65 260.42 312.301 270.803C282.535 283.487 281.762 313.472 240.401 330.385C241.947 329.616 863.909 330.385 863.909 330.385V90.1246C850.768 80.131 815.978 89.7402 797.421 123.185Z" fill="#DCEDC8"/>
<path d="M892.762 280.721C883.117 283.423 878.099 297.699 873.851 306.192C873.851 306.192 876.941 312.367 887.745 313.138C887.745 313.138 898.939 295.383 898.94 290.752C898.94 286.122 894.694 280.334 892.762 280.721Z" fill="#40A4BD"/>
<path d="M892.85 280.848C892.462 280.848 891.686 281.248 891.299 281.248C891.686 281.642 891.686 282.446 891.686 283.245C891.686 293.232 885.095 303.22 877.723 311.209C880.054 312.807 883.156 314.006 887.809 314.405C887.809 314.405 899.053 296.029 899.053 291.235C899.053 286.441 894.788 280.449 892.85 280.848Z" fill="#346790"/>
<path d="M889.247 283.556C886.198 285.477 888.866 318.892 886.198 324.268C882.005 332.717 876.663 342.702 876.663 342.702C888.104 349.614 931.945 349.614 931.945 349.614C931.945 349.614 934.232 341.55 936.138 328.493C938.425 313.132 939.187 280.1 938.044 280.1C919.747 274.724 894.202 280.1 889.247 283.556Z" fill="#40A4BD"/>
<path d="M920.897 259.924L905.828 269.292C906.224 270.078 907.017 275.543 905.828 278.275C905.035 280.617 903.845 284.131 909.397 285.302C914.552 286.473 923.673 281.788 922.488 277.885C920.104 270.853 920.897 259.924 920.897 259.924Z" fill="#FFD8D8"/>
<path d="M920.388 259.823L905.319 269.146C905.716 269.923 906.509 275.367 905.319 278.086C905.319 278.474 904.923 278.863 904.923 279.251C904.923 279.251 907.699 278.863 910.078 277.309C912.854 275.367 915.63 276.532 918.009 278.863C918.807 279.64 919.199 281.194 919.199 282.359C921.182 280.805 922.376 279.251 921.98 277.698C919.595 270.7 920.388 259.823 920.388 259.823Z" fill="#FFD8D8"/>
<path d="M936.93 279.065C931.187 278.291 921.227 287.186 920.849 301.881C920.849 305.748 919.7 310.775 916.25 316.581C914.335 320.062 907.06 322.769 903.997 323.929C900.934 325.089 900.552 326.249 902.083 327.409C903.997 328.569 918.164 330.89 916.633 332.823C914.718 335.143 897.106 339.011 900.552 346.75C902.083 350.612 928.507 347.905 933.484 346.75C935.016 343.651 935.399 336.69 936.164 332.05C938.462 322.769 937.696 302.654 938.844 291.826C939.993 284.479 943.056 279.838 936.93 279.065Z" fill="#40A4BD"/>
<path d="M876.704 356.05C875.906 356.05 863.938 355.257 859.151 356.05C854.364 356.447 852.369 356.843 849.576 360.016C846.784 363.188 847.582 368.343 849.178 372.309C850.773 376.274 852.768 376.274 856.358 375.085C859.949 373.895 863.938 371.119 867.927 370.723C871.917 370.326 872.715 371.119 875.108 370.326C877.901 369.533 878.3 370.326 877.901 368.343C877.901 366.36 876.704 356.05 876.704 356.05Z" fill="#4A4A4A"/>
<path d="M876.704 356.4C875.906 356.4 863.938 355.613 859.151 356.4C854.364 356.793 852.369 357.186 849.577 360.332C847.981 361.906 847.582 364.265 847.981 366.625C850.773 367.411 853.167 367.018 855.959 366.625C858.353 366.232 861.146 365.052 863.539 365.445C866.332 365.838 869.523 367.805 870.321 370.558C872.316 370.558 873.114 370.558 875.108 370.164C877.901 369.378 878.3 370.164 877.901 368.198C877.901 366.625 876.704 356.4 876.704 356.4Z" fill="#4A4A4A"/>
<path d="M854.131 357.748C855.585 356.558 858.493 355.765 858.13 355.765C853.768 356.162 851.95 356.558 849.405 359.731C846.861 362.903 847.588 368.058 849.042 372.024C850.133 375.593 851.95 375.99 854.495 375.196C850.496 370.834 848.678 361.714 854.131 357.748Z" fill="#4A4A4A"/>
<path d="M939.054 354.955C936.262 354.558 927.086 354.558 920.299 353.765C920.299 353.765 913.119 364.076 912.72 364.472C912.72 364.869 918.305 367.645 920.698 369.627C923.092 371.61 932.273 374.783 935.065 373.995C937.459 373.593 942.246 363.283 943.443 359.714C944.241 355.748 941.847 355.351 939.054 354.955Z" fill="#4A4A4A"/>
<path d="M939.054 355.24C936.262 354.843 927.086 354.843 920.299 354.05C920.299 354.05 913.917 363.171 912.72 364.36C915.911 364.36 919.103 362.774 922.299 363.171C923.895 363.567 925.89 365.55 930.677 365.153C933.469 364.757 933.07 369.516 930.677 371.895C930.278 372.291 929.48 372.688 929.081 373.085C931.475 373.878 933.868 374.274 935.065 373.878C937.459 373.481 942.246 363.171 943.443 359.602C944.241 356.033 941.847 355.636 939.054 355.24Z" fill="#4A4A4A"/>
<path d="M853.76 332.286C847.254 333.443 844.958 338.455 844.958 343.852C844.958 346.936 847.636 350.797 851.464 351.568C854.908 352.724 910.788 365.447 912.319 365.833C913.85 366.218 920.361 350.021 920.361 350.021C918.059 349.635 865.624 329.973 853.76 332.286Z" fill="#4A4A4A"/>
<path d="M870.599 347.7C859.118 348.09 855.291 346.529 845.34 341.064C845.34 341.844 844.958 343.015 844.958 344.187C844.958 347.309 847.636 351.213 851.464 351.994C854.908 353.165 910.788 366.051 912.319 366.442C913.85 366.832 920.361 350.432 920.361 350.432C919.59 350.042 903.899 344.577 893.949 341.064C885.912 344.967 879.018 347.309 870.599 347.7Z" fill="#4A4A4A"/>
<path d="M889.684 242.123C889.684 242.123 886.985 244.44 886.985 247.142C886.596 250.227 890.07 255.247 890.07 255.247C890.07 255.247 893.161 246.757 892.771 244.443C892.389 244.053 889.684 242.123 889.684 242.123Z" fill="#212121"/>
<path d="M904.907 281.162L905.283 280.052C905.283 280.052 902.651 279.682 901.899 283.013C901.147 288.564 904.155 293.006 904.155 293.006C904.531 290.045 909.043 285.974 909.043 285.974C905.283 284.123 904.907 281.162 904.907 281.162Z" fill="#8BC34A"/>
<path d="M925.865 253.579C924.319 250.874 921.609 253.192 921.609 253.192C921.609 253.192 921.223 246.237 916.2 241.601C911.177 236.964 906.154 238.896 897.267 241.601C888.38 244.305 889.926 247.01 889.926 247.01C889.926 247.01 890.312 254.352 891.471 261.693C891.858 264.784 895.335 269.034 899.199 273.671C902.676 277.926 907.699 275.608 914.268 271.739C920.837 267.875 920.455 264.011 920.455 263.238C920.455 263.238 921.609 263.625 923.541 262.079C925.865 260.92 927.41 257.056 925.865 253.579Z" fill="#FFD8D8"/>
<path d="M889.648 239.972C888.479 242.324 887.305 250.161 893.934 252.125C900.948 254.079 913.806 245.067 916.534 250.161C918.872 254.476 916.144 257.219 918.092 259.178C919.261 259.962 920.43 259.57 921.215 258.395C921.215 258.003 921.215 254.868 922.773 252.517C922.773 252.517 923.942 251.728 925.111 251.728C925.111 251.728 926.67 246.634 924.327 241.932C917.313 225.866 894.713 229.784 889.648 239.972Z" fill="#212121"/>
<path d="M908.045 231C912.804 234.135 906.855 241.972 911.217 245.499C915.183 248.633 917.166 249.809 917.166 252.557C917.166 254.124 916.373 258.043 916.373 258.827L916.769 259.219C917.959 260.002 919.148 259.61 919.947 258.435C919.947 258.043 919.947 254.908 921.533 252.557C921.533 252.557 922.723 251.773 923.912 251.773C923.912 251.773 925.498 246.674 923.114 241.972C919.947 234.919 913.993 231.392 908.045 231Z" fill="#212121"/>
<path d="M941.37 335.429C934.826 331.611 923.278 336.193 910.57 340.394C900.562 343.449 872.457 352.995 872.457 352.995C872.457 352.995 869.762 364.838 877.461 372.094C877.461 372.094 915.959 362.929 940.985 352.236C942.91 351.468 945.604 350.322 946.374 346.504C946.759 342.303 944.834 337.339 941.37 335.429Z" fill="#4A4A4A"/>
<path d="M940.988 335.663C941.758 337.947 941.758 340.612 940.603 343.658C938.678 347.845 934.059 350.129 929.825 349.368C927.9 348.992 926.36 347.845 924.821 347.464C921.736 347.084 920.196 348.231 917.887 350.515C914.422 353.56 911.343 356.225 906.724 356.987C904.029 357.367 901.72 356.987 899.025 356.987C895.561 357.367 893.251 359.271 890.172 360.032C883.238 361.936 877.079 360.413 870.92 358.129C870.92 362.316 872.075 367.646 876.309 371.453C876.309 371.453 914.807 362.316 939.833 351.657C941.758 350.891 944.452 349.749 945.222 345.942C945.607 342.515 944.067 337.947 940.988 335.663Z" fill="#4A4A4A"/>
<path d="M923.28 256.22C922.899 256.972 922.899 257.348 923.28 258.1C923.656 258.852 923.656 258.476 923.656 259.228C923.656 259.98 922.899 259.604 922.899 260.356C922.523 261.108 922.899 261.484 923.656 261.86C924.408 262.236 925.536 261.484 925.912 259.604C926.283 257.724 926.664 255.844 926.283 255.092C925.16 254.34 923.656 255.092 923.28 256.22Z" fill="#FFD8D8"/>
<path d="M938.693 356.746C940.622 358.29 934.833 372.568 930.204 374.495C931.744 374.883 933.29 375.268 934.063 374.883C936.377 374.499 941.012 364.465 942.164 360.991C943.327 357.515 941.009 357.133 938.693 356.746Z" fill="#4A4A4A"/>
<path d="M932.395 287.488C931.237 295.404 943.207 315.747 943.207 315.747C943.207 315.747 913.856 308.966 910.767 308.589C906.133 308.213 900.341 304.069 898.797 304.445C898.411 304.445 894.549 305.952 894.549 305.952C894.163 305.952 888.371 310.85 888.757 311.98C888.757 312.357 890.302 311.98 890.688 311.603C891.846 310.85 894.163 308.589 894.935 308.213C896.48 307.459 899.569 307.082 899.569 307.082C899.569 307.082 896.866 308.213 896.094 308.966C894.549 310.096 891.846 312.357 891.074 313.864C890.688 314.24 890.688 314.994 890.688 314.994C891.074 314.994 891.846 314.994 892.619 314.617C893.777 314.24 895.322 312.357 895.708 311.98C896.094 311.603 898.797 310.473 898.797 310.473C898.797 310.473 895.708 313.487 895.322 314.24C894.549 315.37 893.005 318.008 893.391 318.008C893.777 318.008 894.163 317.631 894.935 317.254C896.48 316.124 897.252 314.617 898.024 314.24C898.797 313.864 900.727 312.733 901.5 312.357C901.5 312.357 899.955 313.487 899.955 314.24C899.569 314.994 898.797 316.877 898.797 316.877C898.797 316.877 898.411 319.514 899.183 319.514C899.955 319.138 900.727 316.501 900.727 316.501C900.727 316.501 901.114 316.124 901.886 315.37C901.886 315.37 905.361 316.501 908.45 316.501C911.539 316.501 913.084 315.37 913.084 315.37C913.47 316.501 947.069 326.296 950.158 326.672C953.633 327.426 956.336 325.165 956.336 324.035C957.499 318.384 950.158 300.678 945.138 288.246C940.504 277.316 932.782 285.604 932.395 287.488Z" fill="#FFD8D8"/>
<path d="M933.329 287.488C932.159 294.274 941.127 310.096 943.467 314.617C944.637 314.617 946.587 314.617 948.536 313.487C952.826 311.603 958.285 318.008 952.046 321.775C947.756 324.417 941.127 322.152 913.826 313.487C911.097 312.733 908.367 314.617 906.807 314.617C906.027 314.617 903.688 313.487 902.518 314.24C900.568 315.37 900.178 316.877 899.398 319.138C899.398 319.514 899.398 319.514 899.008 319.514C899.008 319.514 899.008 319.891 899.398 319.514C900.178 319.138 900.958 316.501 900.958 316.501C900.958 316.501 901.348 316.124 902.128 315.37C902.128 315.37 905.637 316.501 908.757 316.501C911.877 316.501 913.436 315.37 913.436 315.37C913.826 316.501 947.756 326.296 950.876 326.672C954.386 327.426 957.115 325.165 957.115 324.035C958.285 318.384 950.876 300.678 945.807 288.246C941.517 277.316 933.718 285.604 933.329 287.488Z" fill="#FFD8D8"/>
<path d="M935.101 278.892C926.595 280.796 925.856 291.46 940.278 313.54C940.278 313.54 949.154 312.779 953.961 308.211C953.961 308.211 944.346 276.613 935.101 278.892Z" fill="#40A4BD"/>
<path d="M936.885 279.668C937.272 280.053 937.66 280.434 937.66 281.191C939.211 288.429 937.66 296.804 933.783 303.276C935.721 306.702 937.66 310.509 940.762 314.701C940.762 314.701 950.068 313.935 955.109 309.367C954.721 308.986 946.19 281.571 936.885 279.668Z" fill="#40A4BD"/>
<path d="M919.914 271.685L920.284 274.532C920.284 274.532 914.732 283.892 908.81 283.073C908.81 283.073 913.251 287.552 914.732 290.806C914.732 290.806 921.769 283.892 922.509 277.379C923.249 272.905 919.914 271.685 919.914 271.685Z" fill="#8BC34A"/>
<path d="M890.073 332.045C890.071 333.204 891.228 334.359 892.386 334.361L947.574 334.361C948.728 334.363 949.888 333.201 949.891 332.043L890.073 332.045Z" fill="#40A4BD"/>
<path d="M884.154 282.161C883.756 280.187 881.761 279.003 879.776 279.003H845.138V333.489L893.308 334.279C896.094 334.279 896.492 331.91 896.094 331.12L884.154 282.161Z" fill="#40A4BD"/>
<path d="M880.697 279.964C880.697 279.175 879.927 278.78 879.542 278.78H820.257C819.487 278.78 818.717 279.569 819.102 280.359L830.265 328.513C831.035 331.675 833.73 333.644 836.809 333.644H892.25C893.02 333.644 893.789 332.854 893.405 332.065L880.697 279.964Z" fill="#006B86"/>
<line x1="273" y1="51" x2="790" y2="51" stroke="#40A4BD" stroke-width="2"/>
<line x1="273" y1="81" x2="680" y2="81" stroke="#40A4BD" stroke-width="2"/>
<line x1="273" y1="111" x2="680" y2="111" stroke="#40A4BD" stroke-width="2"/>
<line x1="273" y1="141" x2="586" y2="141" stroke="#40A4BD" stroke-width="2"/>
<line x1="273" y1="171" x2="532" y2="171" stroke="#40A4BD" stroke-width="2"/>
<path d="M867.728 222.53L890.098 201.441L877.904 201.626L867.728 222.53Z" fill="white" stroke="#263238" stroke-linecap="round" stroke-linejoin="round"/>
<path d="M877.904 201.626L873.054 194.819L867.728 222.53L877.904 201.626Z" fill="#B2B2B2" stroke="#263238" stroke-linecap="round" stroke-linejoin="round"/>
<path d="M874.26 201.802L873.054 194.819L867.728 222.53L874.26 201.802Z" fill="white" stroke="#263238" stroke-linecap="round" stroke-linejoin="round"/>
<path d="M867.728 222.53L874.26 201.802L863.392 200.902L867.728 222.53Z" fill="white" stroke="#263238" stroke-linecap="round" stroke-linejoin="round"/>
<path d="M875.44 190.681L875.18 191.757" stroke="#263238" stroke-linecap="round" stroke-linejoin="round"/>
<defs>
<linearGradient id="paint0_linear_266_1630" x1="129.5" y1="327.5" x2="1263" y2="47.9999" gradientUnits="userSpaceOnUse">
<stop stop-color="#40A4BD"/>
<stop offset="1" stop-color="#40A4BD" stop-opacity="0"/>
</linearGradient>
</defs>
</svg>
