<svg width="81" height="48" viewBox="0 0 81 48" fill="none" xmlns="http://www.w3.org/2000/svg">
<g clip-path="url(#clip0_814_2109)">
<mask id="mask0_814_2109" style="mask-type:luminance" maskUnits="userSpaceOnUse" x="-168" y="-120" width="339" height="240">
<path d="M170.998 -119.275H-167.043V119.275H170.998V-119.275Z" fill="white"/>
</mask>
<g mask="url(#mask0_814_2109)">
<path d="M11.5078 45.1628C10.7646 45.1801 10.0294 45.0077 9.37168 44.6619C8.77278 44.3347 8.28392 43.8385 7.96633 43.2353C7.62472 42.5659 7.45502 41.8223 7.47246 41.0713C7.4529 40.3265 7.62281 39.5889 7.96633 38.9274C8.28675 38.3364 8.7759 37.8538 9.37168 37.5408C10.0328 37.2059 10.7666 37.0394 11.5078 37.0559C11.8922 37.06 12.2749 37.1084 12.6481 37.2002C13.0584 37.2948 13.4505 37.4559 13.8086 37.6771C13.9033 37.7267 13.9859 37.7967 14.0505 37.8819C14.115 37.9671 14.1599 38.0655 14.182 38.17C14.2214 38.3593 14.193 38.5564 14.1017 38.727C14.015 38.8929 13.873 39.0233 13.7001 39.0957C13.6012 39.1306 13.4953 39.1415 13.3913 39.1276C13.2873 39.1136 13.1881 39.0752 13.1019 39.0155C12.671 38.761 12.1811 38.6229 11.6805 38.6148C11.3815 38.5959 11.0821 38.6441 10.8041 38.7557C10.5262 38.8674 10.2769 39.0397 10.0744 39.26C9.66578 39.7829 9.46428 40.4377 9.50821 41.0994C9.46988 41.7653 9.67059 42.4231 10.0744 42.9548C10.2727 43.182 10.5206 43.3609 10.799 43.4776C11.0775 43.5943 11.379 43.6458 11.6805 43.628C12.1804 43.6154 12.6692 43.4776 13.1019 43.2273C13.1866 43.1676 13.2845 43.1292 13.3872 43.1153C13.4899 43.1013 13.5945 43.1123 13.6921 43.1471C13.8591 43.2194 13.9906 43.3549 14.0575 43.5238C14.134 43.6993 14.1509 43.8949 14.1057 44.0808C14.0816 44.1824 14.0366 44.2779 13.9738 44.3614C13.9109 44.4448 13.8314 44.5144 13.7403 44.5657C13.3939 44.7751 13.0175 44.9305 12.624 45.0266C12.2577 45.1191 11.8816 45.1675 11.5038 45.1708" fill="#4CA7BC"/>
<path d="M18.8316 43.648C19.1032 43.661 19.3742 43.6113 19.6235 43.5029C19.8727 43.3945 20.0937 43.2302 20.2691 43.0229C20.668 42.4731 20.86 41.8005 20.8111 41.1234C20.8638 40.4447 20.6715 39.7696 20.2691 39.2199C20.0863 39.0219 19.8644 38.8638 19.6173 38.7556C19.3703 38.6475 19.1034 38.5917 18.8336 38.5917C18.5638 38.5917 18.297 38.6475 18.0499 38.7556C17.8028 38.8638 17.5809 39.0219 17.3982 39.2199C16.9957 39.7696 16.8035 40.4447 16.8561 41.1234C16.8073 41.8005 16.9992 42.4731 17.3982 43.0229C17.5712 43.2333 17.7905 43.4011 18.0392 43.513C18.2878 43.6249 18.559 43.678 18.8316 43.6681M18.8316 45.1828C18.0996 45.2011 17.3751 45.0313 16.7276 44.6899C16.1359 44.3659 15.6528 43.8754 15.3383 43.2794C15.0133 42.6076 14.8445 41.8713 14.8445 41.1254C14.8445 40.3795 15.0133 39.6432 15.3383 38.9715C15.6543 38.3786 16.1372 37.891 16.7276 37.5689C17.3821 37.2447 18.1029 37.0761 18.8336 37.0761C19.5643 37.0761 20.2851 37.2447 20.9396 37.5689C21.5292 37.8921 22.0119 38.3794 22.3289 38.9715C22.6539 39.6432 22.8227 40.3795 22.8227 41.1254C22.8227 41.8713 22.6539 42.6076 22.3289 43.2794C22.0133 43.8745 21.5304 44.3648 20.9396 44.6899C20.289 45.0247 19.5632 45.1875 18.8316 45.1628V45.1828Z" fill="#4CA7BC"/>
<path d="M25.489 45.1308C25.3502 45.1508 25.2087 45.1383 25.0756 45.0943C24.9425 45.0503 24.8215 44.9759 24.7222 44.8772C24.6228 44.7784 24.5479 44.658 24.5033 44.5253C24.4586 44.3927 24.4456 44.2515 24.4651 44.1129V38.1019C24.4565 37.969 24.4754 37.8358 24.5204 37.7105C24.5655 37.5852 24.6358 37.4704 24.7271 37.3733C24.8183 37.2762 24.9286 37.1988 25.051 37.1459C25.1734 37.0929 25.3054 37.0656 25.4388 37.0656C25.5722 37.0656 25.7042 37.0929 25.8266 37.1459C25.949 37.1988 26.0592 37.2762 26.1505 37.3733C26.2417 37.4704 26.3121 37.5852 26.3572 37.7105C26.4022 37.8358 26.421 37.969 26.4125 38.1019V38.5988C26.798 37.6851 27.6171 37.1748 28.8698 37.068C29.3276 37.0159 29.5845 37.2763 29.6367 37.8494C29.6889 38.4225 29.4119 38.723 28.8056 38.7871L28.4563 38.8192C27.1473 38.9474 26.4928 39.6153 26.4928 40.8229V44.1209C26.5133 44.2579 26.5016 44.3977 26.4587 44.5295C26.4157 44.6612 26.3427 44.7811 26.2454 44.8798C26.148 44.9785 26.029 45.0533 25.8977 45.0982C25.7665 45.1432 25.6265 45.1571 25.489 45.1388" fill="#4CA7BC"/>
<path d="M34.6638 43.648C34.9364 43.6579 35.2076 43.6049 35.4562 43.493C35.7049 43.381 35.9243 43.2133 36.0973 43.0029C36.4992 42.4544 36.6928 41.7811 36.6433 41.1034C36.6966 40.424 36.5027 39.7482 36.0973 39.1999C35.9145 39.0018 35.6926 38.8437 35.4455 38.7356C35.1984 38.6275 34.9316 38.5716 34.6618 38.5716C34.392 38.5716 34.1252 38.6275 33.8781 38.7356C33.631 38.8437 33.4091 39.0018 33.2263 39.1999C32.8239 39.7495 32.6317 40.4246 32.6843 41.1034C32.6355 41.7804 32.8274 42.453 33.2263 43.0029C33.3998 43.2139 33.6198 43.3819 33.8692 43.4939C34.1186 43.6058 34.3906 43.6586 34.6638 43.648ZM31.7126 47.996C31.5768 48.0151 31.4385 48.0022 31.3086 47.9584C31.1787 47.9146 31.0609 47.8411 30.9645 47.7438C30.8681 47.6464 30.7959 47.528 30.7536 47.3978C30.7113 47.2676 30.7001 47.1294 30.7208 46.9942V38.0898C30.7122 37.9559 30.7313 37.8216 30.7767 37.6953C30.8222 37.569 30.8931 37.4533 30.9851 37.3554C31.0771 37.2576 31.1882 37.1795 31.3116 37.1262C31.435 37.0729 31.5681 37.0453 31.7026 37.0453C31.837 37.0453 31.9701 37.0729 32.0935 37.1262C32.2169 37.1795 32.328 37.2576 32.42 37.3554C32.512 37.4533 32.5829 37.569 32.6284 37.6953C32.6739 37.8216 32.6929 37.9559 32.6843 38.0898V38.4265C32.916 38.0056 33.2646 37.6605 33.6881 37.4326C34.1577 37.1756 34.6865 37.0457 35.2219 37.0559C35.8554 37.0434 36.4789 37.2146 37.0168 37.5488C37.5423 37.8906 37.96 38.3742 38.2213 38.9434C38.5254 39.622 38.6723 40.3603 38.651 41.1034C38.6698 41.8449 38.523 42.5814 38.2213 43.2593C37.962 43.834 37.5442 44.3233 37.0168 44.6699C36.4771 45.0067 35.8502 45.1781 35.2139 45.1628C34.694 45.1703 34.1804 45.0477 33.7202 44.8062C33.2994 44.5801 32.9514 44.2397 32.7164 43.8244V46.9781C32.7387 47.1154 32.7282 47.256 32.6859 47.3885C32.6436 47.521 32.5706 47.6417 32.4729 47.7409C32.3751 47.84 32.2553 47.9147 32.1233 47.9591C31.9912 48.0034 31.8505 48.016 31.7126 47.996Z" fill="#4CA7BC"/>
<path d="M43.8547 43.648C44.1278 43.6576 44.3995 43.6045 44.6487 43.4926C44.898 43.3807 45.1181 43.2132 45.2922 43.0028C45.6911 42.453 45.883 41.7804 45.8342 41.1034C45.8868 40.4246 45.6946 39.7495 45.2922 39.1999C45.109 39.0017 44.8868 38.8436 44.6394 38.7354C44.392 38.6272 44.1248 38.5714 43.8547 38.5714C43.5846 38.5714 43.3174 38.6272 43.07 38.7354C42.8226 38.8436 42.6003 39.0017 42.4172 39.1999C42.0148 39.7495 41.8225 40.4246 41.8752 41.1034C41.8263 41.7804 42.0183 42.453 42.4172 43.0028C42.591 43.2134 42.8112 43.3811 43.0604 43.493C43.3097 43.6049 43.5815 43.6579 43.8547 43.648ZM43.8547 45.1628C43.1214 45.1804 42.3958 45.0108 41.7467 44.6699C41.1569 44.3447 40.6754 43.8543 40.3614 43.2593C40.0338 42.5883 39.8635 41.8518 39.8635 41.1054C39.8635 40.359 40.0338 39.6224 40.3614 38.9514C40.6768 38.3595 41.1582 37.8721 41.7467 37.5488C42.4012 37.2247 43.122 37.056 43.8527 37.056C44.5834 37.056 45.3041 37.2247 45.9587 37.5488C46.5491 37.8709 47.032 38.3585 47.348 38.9514C47.673 39.6231 47.8418 40.3594 47.8418 41.1054C47.8418 41.8513 47.673 42.5876 47.348 43.2593C47.0335 43.8553 46.5504 44.3458 45.9587 44.6699C45.3112 45.0113 44.5867 45.181 43.8547 45.1628Z" fill="#4CA7BC"/>
<path d="M50.5081 45.1308C50.3696 45.1501 50.2286 45.1371 50.096 45.0928C49.9634 45.0484 49.8429 44.974 49.7441 44.8754C49.6452 44.7767 49.5707 44.6565 49.5263 44.5242C49.4819 44.3919 49.4688 44.2511 49.4882 44.1129V38.1019C49.4797 37.969 49.4985 37.8358 49.5435 37.7105C49.5886 37.5852 49.6589 37.4704 49.7502 37.3733C49.8414 37.2762 49.9517 37.1988 50.0741 37.1459C50.1965 37.0929 50.3285 37.0656 50.4619 37.0656C50.5953 37.0656 50.7273 37.0929 50.8497 37.1459C50.9721 37.1988 51.0824 37.2762 51.1736 37.3733C51.2649 37.4704 51.3352 37.5852 51.3803 37.7105C51.4253 37.8358 51.4442 37.969 51.4356 38.1019V38.5988C51.8184 37.6851 52.6375 37.1748 53.8929 37.068C54.3507 37.0159 54.6037 37.2763 54.6559 37.8494C54.7081 38.4225 54.435 38.723 53.8287 38.7871L53.4754 38.8192C52.1664 38.9474 51.5119 39.6153 51.5119 40.8229V44.1209C51.5324 44.2579 51.5207 44.3977 51.4778 44.5295C51.4348 44.6612 51.3618 44.7811 51.2645 44.8798C51.1671 44.9785 51.0481 45.0533 50.9169 45.0982C50.7856 45.1432 50.6456 45.1571 50.5081 45.1388" fill="#4CA7BC"/>
<path d="M58.647 43.7923C58.8898 43.7988 59.1312 43.7539 59.3554 43.6607C59.5796 43.5674 59.7815 43.4279 59.9479 43.2513C60.1207 43.0683 60.2554 42.853 60.3443 42.6178C60.4332 42.3825 60.4745 42.1321 60.4659 41.8808V41.5322H59.9238C59.2213 41.4945 58.5174 41.5717 57.8399 41.7606C57.664 41.8168 57.5117 41.9294 57.4064 42.0808C57.3011 42.2322 57.2489 42.414 57.2577 42.5981C57.2528 42.7599 57.2834 42.9208 57.3472 43.0696C57.411 43.2184 57.5065 43.3515 57.6271 43.4597C57.9123 43.696 58.277 43.8149 58.647 43.7923ZM58.2454 45.1628C57.7233 45.1732 57.2061 45.0606 56.7357 44.8342C56.3174 44.6385 55.9595 44.334 55.6997 43.9526C55.4475 43.5818 55.3158 43.1425 55.3223 42.6943C55.2951 42.1998 55.4557 41.7133 55.772 41.3318C56.1664 40.9523 56.6683 40.7032 57.2095 40.6185C58.0988 40.4516 59.0031 40.3777 59.9077 40.3981H60.4659V40.0615C60.5022 39.6487 60.377 39.238 60.1165 38.9154C59.7766 38.6455 59.3438 38.5202 58.912 38.5667C58.577 38.5693 58.2433 38.6069 57.9162 38.6789C57.528 38.7623 57.1508 38.89 56.7919 39.0596C56.6959 39.1153 56.5883 39.148 56.4774 39.1549C56.3666 39.1619 56.2557 39.143 56.1535 39.0997C56.0699 39.0552 55.9963 38.9942 55.9369 38.9205C55.8776 38.8468 55.8338 38.7619 55.8082 38.6709C55.7527 38.4738 55.764 38.2639 55.8403 38.0738C55.8851 37.9684 55.952 37.8739 56.0365 37.7964C56.121 37.719 56.2211 37.6606 56.3301 37.625C56.784 37.4343 57.2562 37.2906 57.7395 37.1962C58.147 37.1161 58.5609 37.0732 58.9762 37.068C60.1166 37.068 60.9597 37.3325 61.5138 37.8695C62.068 38.4064 62.345 39.2079 62.345 40.3139V44.1369C62.345 44.8142 62.0358 45.1548 61.4175 45.1548C60.7991 45.1548 60.4779 44.8142 60.4779 44.1369V43.7843C60.3052 44.2093 60.0033 44.5695 59.6146 44.8142C59.1965 45.0584 58.7176 45.1793 58.2334 45.1628H58.2454Z" fill="#4CA7BC"/>
<path d="M67.9665 45.1628C65.9027 45.1628 64.8708 44.1436 64.8708 42.1052V38.711H64.0396C63.5096 38.711 63.2366 38.4625 63.2366 37.9656C63.2366 37.4687 63.5056 37.2163 64.0396 37.2163H64.8708V35.7656C64.8708 35.4999 64.9766 35.2451 65.1648 35.0572C65.3531 34.8693 65.6084 34.7638 65.8746 34.7638C66.1408 34.7638 66.3962 34.8693 66.5844 35.0572C66.7727 35.2451 66.8784 35.4999 66.8784 35.7656V37.2163H68.5688C69.0989 37.2163 69.3719 37.4647 69.3719 37.9656C69.3719 38.4665 69.1069 38.711 68.5688 38.711H66.8784V41.993C66.8459 42.4028 66.9644 42.8104 67.2117 43.1391C67.3522 43.2808 67.522 43.39 67.7093 43.4593C67.8966 43.5285 68.0967 43.556 68.2958 43.5399C68.4564 43.542 68.6167 43.5259 68.7736 43.4918C68.895 43.4614 69.0185 43.44 69.143 43.4276C69.2017 43.4202 69.2613 43.4273 69.3166 43.4483C69.372 43.4693 69.4213 43.5034 69.4602 43.5479C69.5683 43.7093 69.6139 43.9044 69.5887 44.0969C69.5936 44.2904 69.558 44.4828 69.4843 44.6619C69.4508 44.7425 69.4 44.8147 69.3355 44.8735C69.271 44.9324 69.1943 44.9764 69.1109 45.0025C68.9332 45.055 68.7521 45.0952 68.5688 45.1227C68.3738 45.1567 68.1765 45.1755 67.9786 45.1789" fill="#4CA7BC"/>
<path d="M73.9973 38.4104C73.7359 38.3994 73.4751 38.4417 73.2307 38.5347C72.9863 38.6277 72.7635 38.7695 72.5759 38.9514C72.1958 39.351 71.9647 39.8688 71.9214 40.4181H75.8483C75.844 39.8753 75.6558 39.3499 75.3143 38.9274C75.1452 38.7513 74.94 38.614 74.7126 38.5247C74.4852 38.4355 74.2412 38.3965 73.9973 38.4104ZM74.2864 45.1628C73.4963 45.1836 72.7127 45.0146 72.0017 44.6699C71.3823 44.3582 70.8694 43.8701 70.5281 43.2673C70.1665 42.6101 69.9864 41.8689 70.0061 41.1194C69.989 40.3811 70.1633 39.6509 70.512 38.9995C70.8335 38.4058 71.3128 37.9121 71.8973 37.5729C72.508 37.2242 73.2014 37.0456 73.9049 37.0559C74.3926 37.0321 74.8796 37.1135 75.3328 37.2947C75.786 37.4759 76.1947 37.7526 76.5309 38.1059C77.2077 38.9042 77.5526 39.931 77.4946 40.9751C77.4946 41.3759 77.2416 41.5642 76.7317 41.5642H71.9134C72.0606 42.9534 72.8636 43.648 74.3225 43.648C74.6369 43.6449 74.9502 43.6113 75.2581 43.5478C75.6014 43.4789 75.9319 43.3573 76.2378 43.1872C76.3385 43.1156 76.4527 43.0651 76.5735 43.039C76.6943 43.0128 76.8191 43.0114 76.9405 43.0349C77.0283 43.0601 77.1097 43.1039 77.179 43.1634C77.2483 43.2229 77.3039 43.2966 77.342 43.3795C77.4212 43.5577 77.4326 43.7586 77.3741 43.9446C77.2957 44.1743 77.1318 44.3651 76.9164 44.4776C76.5202 44.7206 76.0858 44.8954 75.6315 44.9945C75.1871 45.1025 74.7317 45.1589 74.2743 45.1628H74.2864Z" fill="#4CA7BC"/>
<path fill-rule="evenodd" clip-rule="evenodd" d="M9.26319 18.9067C9.26319 17.6988 9.62209 16.518 10.2945 15.5137C10.9669 14.5094 11.9226 13.7266 13.0407 13.2644C14.1589 12.8021 15.3892 12.6812 16.5763 12.9168C17.7633 13.1525 18.8536 13.7341 19.7094 14.5882C20.5652 15.4423 21.148 16.5305 21.3841 17.7152C21.6203 18.8999 21.4991 20.1279 21.0359 21.2438C20.5728 22.3597 19.7885 23.3136 18.7822 23.9846C17.7758 24.6557 16.5927 25.0139 15.3825 25.0139C13.7599 25.0128 12.204 24.369 11.0567 23.2239C9.9093 22.0788 9.26426 20.5261 9.26319 18.9067ZM6.45251 8.95643C6.45251 13.0079 6.45251 18.5741 6.45251 19.3154C6.50882 21.4306 7.32072 23.4561 8.74173 25.0264C10.1627 26.5967 12.0993 27.6084 14.202 27.8791C13.8777 28.2602 13.6736 28.7285 13.6156 29.2251C13.5575 29.7217 13.6481 30.2244 13.8757 30.6697C14.1034 31.1151 14.4581 31.4832 14.8951 31.7277C15.332 31.9723 15.8317 32.0822 16.3312 32.0438C16.8307 32.0054 17.3076 31.8203 17.7018 31.5118C18.0961 31.2033 18.39 30.7853 18.5466 30.3103C18.7032 29.8354 18.7155 29.3249 18.5818 28.843C18.4482 28.3612 18.1746 27.9296 17.7956 27.6026C19.951 26.9807 21.7908 25.5681 22.9458 23.6484C24.1007 21.7286 24.4853 19.4439 24.0222 17.253C23.5592 15.062 22.2828 13.1269 20.4493 11.8363C18.6159 10.5457 16.3611 9.995 14.1377 10.2949V3.83504C14.1055 2.83886 13.6863 1.89425 12.9688 1.20095C12.2513 0.507652 11.2918 0.120026 10.2931 0.120026C9.29444 0.120026 8.33492 0.507652 7.61743 1.20095C6.89995 1.89425 6.48075 2.83886 6.44849 3.83504V6.0511H7.48041C7.85322 6.07065 8.2043 6.23223 8.46127 6.50252C8.71823 6.7728 8.86148 7.13118 8.86148 7.50376C8.86148 7.87635 8.71823 8.23474 8.46127 8.50503C8.2043 8.77531 7.85322 8.93688 7.48041 8.95643H6.45251Z" fill="#4CA7BC"/>
<path fill-rule="evenodd" clip-rule="evenodd" d="M16.2538 15.6247C15.7737 15.4851 15.2671 15.4618 14.7762 15.5565C14.1766 15.6642 13.6165 15.929 13.1532 16.3237C12.6899 16.7185 12.34 17.229 12.1394 17.8031C11.9388 18.3772 11.8947 18.9941 12.0116 19.5908C12.1285 20.1875 12.4022 20.7425 12.8047 21.1989C13.7282 22.353 15.7318 22.7337 17.3018 21.7399C17.8123 21.4071 18.2213 20.9406 18.484 20.3915C18.7468 19.8423 18.8531 19.2316 18.7914 18.6261L18.7352 18.6662C18.3366 18.9316 17.8561 19.046 17.3804 18.9887C16.9047 18.9313 16.4652 18.7061 16.1414 18.3537C15.8108 17.9689 15.6386 17.4734 15.6595 16.9671C15.6803 16.4607 15.8927 15.981 16.2538 15.6247Z" fill="black"/>
<path d="M27.9142 26.9494C26.8435 26.9494 26.3081 26.3644 26.3081 25.1942V12.7354C26.3081 11.5893 26.8421 11.0122 27.9142 11.0122C28.9863 11.0122 29.5444 11.5893 29.5444 12.7354V25.1942C29.5444 26.3644 29.001 26.9494 27.9142 26.9494Z" fill="black"/>
<path d="M27.9142 7.6901C27.3752 7.72366 26.8433 7.55341 26.4245 7.21323C26.2449 7.04064 26.1049 6.83126 26.0141 6.59952C25.9233 6.36778 25.8838 6.11917 25.8985 5.87077C25.8985 4.65521 26.5677 4.04876 27.9061 4.05143C29.2472 4.05143 29.9138 4.65654 29.9138 5.87077C29.9138 7.085 29.2392 7.6901 27.9061 7.6901" fill="#4CA7BC"/>
<path d="M39.1127 27.0456C37.4504 27.0456 36.1976 26.5661 35.3544 25.607C34.5112 24.6479 34.0896 23.24 34.0896 21.3832V5.64637C34.0896 4.55904 34.625 4.01672 35.6957 4.01939C36.7664 4.02206 37.3112 4.56439 37.3299 5.64637V21.1989C37.3299 23.3067 38.1825 24.3607 39.8876 24.3607C40.0595 24.3634 40.2314 24.3527 40.4016 24.3286C40.5507 24.3092 40.7009 24.2998 40.8513 24.3006C40.9518 24.2795 41.0562 24.2875 41.1523 24.3237C41.2483 24.3599 41.332 24.4228 41.3934 24.5049C41.5296 24.8104 41.5849 25.1458 41.554 25.4787C41.554 26.3523 41.1525 26.8532 40.3494 26.9815L39.727 27.0296C39.5223 27.0296 39.3255 27.0296 39.1328 27.0296" fill="black"/>
<path d="M44.0755 19.0189C44.0755 17.9315 44.3986 16.8685 45.004 15.9643C45.6093 15.0601 46.4697 14.3554 47.4763 13.9393C48.4829 13.5232 49.5906 13.4143 50.6592 13.6264C51.7279 13.8386 52.7095 14.3622 53.4799 15.1311C54.2503 15.9001 54.775 16.8797 54.9876 17.9463C55.2002 19.0128 55.0911 20.1182 54.6741 21.1229C54.2571 22.1275 53.5511 22.9862 52.6451 23.5904C51.7392 24.1945 50.6741 24.517 49.5845 24.517C48.1238 24.5159 46.7231 23.9363 45.6903 22.9054C44.6574 21.8746 44.0766 20.4767 44.0755 19.0189ZM47.0669 26.6569C39.5664 24.4328 39.5222 13.9376 46.7858 11.4049C50.2069 10.2027 54.2181 11.5772 55.9648 14.4745L55.9326 5.65838C55.9326 4.57239 56.4667 4.0314 57.5387 4.0314C58.6108 4.0314 59.1689 4.57239 59.1689 5.65838V25.3505C59.1689 26.4378 58.6336 26.9815 57.5628 26.9815C56.4921 26.9815 55.9567 26.4378 55.9567 25.3505V23.1865C55.7038 24.2044 54.9007 25.098 53.9491 25.7632C51.8772 27.1979 49.46 27.3662 47.0669 26.6569Z" fill="black"/>
<path fill-rule="evenodd" clip-rule="evenodd" d="M65.3083 26.9494C64.2375 26.9494 63.7021 26.3644 63.7021 25.1942V12.7354C63.7021 11.5893 64.2362 11.0122 65.3083 11.0122C66.3803 11.0122 66.9425 11.5893 66.9425 12.7354V25.1942C66.9425 26.3644 66.3977 26.9494 65.3083 26.9494Z" fill="black"/>
<path fill-rule="evenodd" clip-rule="evenodd" d="M65.3082 7.69012C64.7705 7.72385 64.2398 7.55353 63.8226 7.21326C63.6422 7.04102 63.5015 6.83182 63.41 6.60006C63.3185 6.3683 63.2784 6.11949 63.2926 5.87079C63.2926 4.66859 63.9671 4.05145 65.3002 4.05145C66.6333 4.05145 67.3078 4.65657 67.3078 5.87079C67.3078 7.08502 66.6373 7.69012 65.3002 7.69012" fill="#4CA7BC"/>
<path d="M73.1181 26.9935C72.03 26.9935 71.4839 26.4485 71.4839 25.3665V12.567C71.4839 11.4811 72.0099 10.936 73.0539 10.936C74.0978 10.936 74.6198 11.4811 74.6198 12.567V13.9376C75.0158 13.0163 75.695 12.2445 76.5592 11.7335C77.5251 11.193 78.6048 10.8869 79.7112 10.8399C80.5142 10.7758 80.9157 11.2045 80.988 12.1182C81.0603 13.0319 80.6146 13.5649 79.6148 13.653L79.0045 13.7171C76.1697 13.9843 74.751 15.4416 74.7483 18.0892V25.3425C74.7483 26.4244 74.2062 26.9694 73.1181 26.9694" fill="black"/>
<path fill-rule="evenodd" clip-rule="evenodd" d="M3.6539 7.41363C3.6539 7.32648 3.61921 7.24289 3.55746 7.18127C3.49571 7.11964 3.41196 7.08502 3.32464 7.08502H0.329255C0.241932 7.08502 0.158183 7.11964 0.096436 7.18127C0.0346893 7.24289 0 7.32648 0 7.41363C0.00105649 7.50008 0.0362126 7.58263 0.0978452 7.64339C0.159478 7.70416 0.242623 7.73823 0.329255 7.73822H3.32464C3.41127 7.73823 3.49442 7.70416 3.55605 7.64339C3.61768 7.58263 3.65284 7.50008 3.6539 7.41363Z" fill="black"/>
<path fill-rule="evenodd" clip-rule="evenodd" d="M3.91079 5.59027C3.93801 5.54272 3.95187 5.48874 3.95093 5.43399C3.95182 5.37566 3.93654 5.31822 3.90678 5.26801C3.87702 5.2178 3.83394 5.17677 3.7823 5.14946L1.1523 3.71082C1.11486 3.69029 1.07373 3.67733 1.03127 3.67266C0.988814 3.668 0.945854 3.67173 0.904839 3.68363C0.863825 3.69554 0.825566 3.7154 0.792241 3.74207C0.758915 3.76873 0.731181 3.80169 0.710619 3.83906C0.668896 3.91512 0.658981 4.00456 0.683049 4.08788C0.707117 4.1712 0.763208 4.24165 0.839099 4.28387L3.46911 5.72252C3.50678 5.74289 3.54812 5.75562 3.59075 5.76C3.63337 5.76438 3.67644 5.7603 3.71749 5.74802C3.75853 5.73573 3.79673 5.71547 3.8299 5.6884C3.86307 5.66133 3.89057 5.62797 3.91079 5.59027Z" fill="black"/>
<path fill-rule="evenodd" clip-rule="evenodd" d="M3.78232 9.68175C3.83396 9.65444 3.87704 9.61342 3.9068 9.56321C3.93656 9.51301 3.95184 9.45556 3.95095 9.39724C3.9515 9.34253 3.93767 9.28865 3.91081 9.24096C3.89059 9.20325 3.8631 9.1699 3.82992 9.14283C3.79675 9.11576 3.75855 9.0955 3.71751 9.08321C3.67647 9.07092 3.63339 9.06685 3.59077 9.07122C3.54814 9.0756 3.5068 9.08834 3.46913 9.10871L0.839119 10.5634C0.762978 10.6048 0.706464 10.6748 0.681991 10.7578C0.657518 10.8409 0.667099 10.9302 0.70863 11.0062C0.750162 11.0822 0.820243 11.1386 0.903451 11.163C0.986658 11.1874 1.07618 11.1779 1.15232 11.1364L3.78232 9.68175Z" fill="black"/>
<path fill-rule="evenodd" clip-rule="evenodd" d="M16.2017 28.4281C16.4399 28.4281 16.6728 28.4986 16.8709 28.6307C17.069 28.7628 17.2234 28.9506 17.3145 29.1703C17.4057 29.3899 17.4296 29.6317 17.3831 29.8649C17.3366 30.0981 17.2219 30.3123 17.0534 30.4804C16.885 30.6486 16.6703 30.7631 16.4367 30.8095C16.203 30.8558 15.9608 30.832 15.7407 30.741C15.5206 30.65 15.3324 30.4959 15.2001 30.2982C15.0677 30.1005 14.9971 29.8681 14.9971 29.6303C14.9971 29.3115 15.124 29.0057 15.3499 28.7803C15.5758 28.5548 15.8822 28.4281 16.2017 28.4281Z" fill="white"/>
<path fill-rule="evenodd" clip-rule="evenodd" d="M44.0757 19.0189C44.0757 17.9315 44.3988 16.8684 45.0041 15.9643C45.6094 15.0601 46.4698 14.3554 47.4765 13.9393C48.4831 13.5232 49.5908 13.4143 50.6594 13.6264C51.728 13.8386 52.7096 14.3622 53.48 15.1311C54.2505 15.9001 54.7752 16.8797 54.9877 17.9462C55.2003 19.0128 55.0912 20.1182 54.6742 21.1229C54.2573 22.1275 53.5512 22.9862 52.6453 23.5903C51.7393 24.1945 50.6742 24.517 49.5846 24.517C48.1239 24.5159 46.7233 23.9363 45.6904 22.9054C44.6575 21.8746 44.0767 20.4767 44.0757 19.0189Z" fill="white"/>
</g>
</g>
<defs>
<clipPath id="clip0_814_2109">
<rect width="81" height="48" fill="white"/>
</clipPath>
</defs>
</svg>
